<svg width="49" height="48" viewBox="0 0 49 48" fill="none" xmlns="http://www.w3.org/2000/svg">
<rect x="0.324829" y="-0.00280762" width="48" height="48" rx="8" fill="#E5F0FF"/>
<path d="M36.9588 26.4972C36.9621 27.0093 36.8065 27.5098 36.5136 27.9299C36.2207 28.35 35.8049 28.6691 35.3232 28.8431L27.1732 31.8457L24.1706 39.9957C23.9937 40.4755 23.674 40.8896 23.2546 41.1821C22.8351 41.4745 22.336 41.6313 21.8247 41.6313C21.3133 41.6313 20.8143 41.4745 20.3948 41.1821C19.9753 40.8896 19.6556 40.4755 19.4788 39.9957L16.4762 31.8457L8.32614 28.8431C7.84633 28.6663 7.43228 28.3466 7.13982 27.9271C6.84735 27.5076 6.69055 27.0086 6.69055 26.4972C6.69055 25.9858 6.84735 25.4868 7.13982 25.0673C7.43228 24.6478 7.84633 24.3281 8.32614 24.1513L16.4762 21.1487L19.4788 12.9987C19.6556 12.5188 19.9753 12.1048 20.3948 11.8123C20.8143 11.5199 21.3133 11.3631 21.8247 11.3631C22.336 11.3631 22.8351 11.5199 23.2546 11.8123C23.674 12.1048 23.9937 12.5188 24.1706 12.9987L27.1732 21.1487L35.3232 24.1513C35.8049 24.3253 36.2207 24.6443 36.5136 25.0644C36.8065 25.4845 36.9621 25.9851 36.9588 26.4972V26.4972ZM28.0747 11.4972H30.5747L30.5747 13.9972C30.5747 14.3287 30.7064 14.6467 30.9408 14.8811C31.1752 15.1155 31.4932 15.2472 31.8247 15.2472C32.1562 15.2472 32.4741 15.1155 32.7086 14.8811C32.943 14.6467 33.0747 14.3287 33.0747 13.9972L33.0747 11.4972H35.5747C35.9062 11.4972 36.2241 11.3655 36.4586 11.1311C36.693 10.8967 36.8247 10.5787 36.8247 10.2472C36.8247 9.91567 36.693 9.59773 36.4586 9.36331C36.2241 9.12889 35.9062 8.99719 35.5747 8.99719H33.0747L33.0747 6.49719C33.0747 6.16567 32.943 5.84773 32.7086 5.61331C32.4741 5.37889 32.1562 5.24719 31.8247 5.24719C31.4932 5.24719 31.1752 5.37889 30.9408 5.61331C30.7064 5.84773 30.5747 6.16567 30.5747 6.49719L30.5747 8.99719H28.0747C27.7432 8.99719 27.4252 9.12889 27.1908 9.36331C26.9564 9.59773 26.8247 9.91567 26.8247 10.2472C26.8247 10.5787 26.9564 10.8967 27.1908 11.1311C27.4252 11.3655 27.7432 11.4972 28.0747 11.4972ZM41.8247 16.4972H40.5747L40.5747 15.2472C40.5747 14.9157 40.443 14.5977 40.2086 14.3633C39.9741 14.1289 39.6562 13.9972 39.3247 13.9972C38.9932 13.9972 38.6752 14.1289 38.4408 14.3633C38.2064 14.5977 38.0747 14.9157 38.0747 15.2472L38.0747 16.4972H36.8247C36.4932 16.4972 36.1752 16.6289 35.9408 16.8633C35.7064 17.0977 35.5747 17.4157 35.5747 17.7472C35.5747 18.0787 35.7064 18.3967 35.9408 18.6311C36.1752 18.8655 36.4932 18.9972 36.8247 18.9972H38.0747L38.0747 20.2472C38.0747 20.5787 38.2064 20.8967 38.4408 21.1311C38.6752 21.3655 38.9932 21.4972 39.3247 21.4972C39.6562 21.4972 39.9741 21.3655 40.2086 21.1311C40.443 20.8967 40.5747 20.5787 40.5747 20.2472L40.5747 18.9972H41.8247C42.1562 18.9972 42.4741 18.8655 42.7086 18.6311C42.943 18.3967 43.0747 18.0787 43.0747 17.7472C43.0747 17.4157 42.943 17.0977 42.7086 16.8633C42.4741 16.6289 42.1562 16.4972 41.8247 16.4972Z" fill="url(#paint0_linear_96_483)"/>
<defs>
<linearGradient id="paint0_linear_96_483" x1="4.65816" y1="3.70087" x2="52.0671" y2="14.1834" gradientUnits="userSpaceOnUse">
<stop stop-color="#176FEB"/>
<stop offset="1" stop-color="#FF80FF"/>
</linearGradient>
</defs>
</svg>
