<svg width="49" height="49" viewBox="0 0 49 49" fill="none" xmlns="http://www.w3.org/2000/svg">
<rect x="0.325012" y="0.459167" width="48" height="48" rx="8" fill="#E5F0FF"/>
<path d="M24.325 8.20917C21.1111 8.20917 17.9693 9.16221 15.297 10.9478C12.6247 12.7334 10.5419 15.2713 9.31198 18.2406C8.08205 21.2099 7.76025 24.4772 8.38726 27.6294C9.01427 30.7816 10.5619 33.677 12.8345 35.9497C15.1071 38.2223 18.0026 39.7699 21.1548 40.3969C24.307 41.0239 27.5743 40.7021 30.5436 39.4722C33.5129 38.2423 36.0508 36.1595 37.8364 33.4872C39.622 30.8149 40.575 27.6731 40.575 24.4592C40.5701 20.1509 38.8565 16.0205 35.8101 12.9741C32.7637 9.92766 28.6333 8.21404 24.325 8.20917V8.20917ZM32.5046 17.916L28.1148 27.6257C27.9861 27.9105 27.7554 28.1366 27.4682 28.2597L18.1875 32.2372C17.9579 32.3356 17.704 32.363 17.4587 32.3158C17.2134 32.2685 16.9878 32.1489 16.8112 31.9722C16.6345 31.7956 16.5148 31.5701 16.4676 31.3247C16.4203 31.0794 16.4477 30.8256 16.5461 30.5959L20.5234 21.3151C20.6463 21.0288 20.8715 20.7986 21.1552 20.6696L30.8483 16.2632C31.0798 16.158 31.3378 16.1259 31.588 16.1711C31.8382 16.2163 32.0686 16.3367 32.2486 16.5163C32.4285 16.6959 32.5495 16.9261 32.5952 17.1762C32.641 17.4263 32.6094 17.6844 32.5046 17.916Z" fill="url(#paint0_linear_96_471)"/>
<defs>
<linearGradient id="paint0_linear_96_471" x1="6.25958" y1="6.82792" x2="48.6075" y2="16.1914" gradientUnits="userSpaceOnUse">
<stop stop-color="#176FEB"/>
<stop offset="1" stop-color="#FF80FF"/>
</linearGradient>
</defs>
</svg>
