<svg width="49" height="48" viewBox="0 0 49 48" fill="none" xmlns="http://www.w3.org/2000/svg">
<rect x="0.324219" width="48" height="48" rx="8" fill="#E5F0FF"/>
<path d="M27.8462 25.7539L36.5706 22.5813C37.0509 22.4067 37.4661 22.0891 37.7603 21.6712C38.0546 21.2534 38.2137 20.7554 38.2162 20.2444C38.2188 19.7333 38.0647 19.2338 37.7746 18.813C37.4846 18.3923 37.0726 18.0705 36.5941 17.8911L12.3382 8.79514C11.8888 8.62657 11.4003 8.59096 10.9312 8.69258C10.462 8.79419 10.032 9.02873 9.69261 9.36817C9.35319 9.70761 9.11867 10.1376 9.01708 10.6067C8.91549 11.0759 8.95111 11.5644 9.11971 12.0138V12.0138L18.2156 36.2696C18.3915 36.7478 18.7106 37.1602 19.1293 37.4505C19.5481 37.7408 20.0462 37.8949 20.5557 37.8918H20.5688C21.0806 37.8924 21.5801 37.7345 21.9985 37.4399C22.417 37.1452 22.7339 36.7282 22.9059 36.2462L26.0784 27.5218L35.9405 37.3838C36.175 37.6183 36.4929 37.75 36.8245 37.75C37.156 37.75 37.474 37.6183 37.7084 37.3838C37.9429 37.1494 38.0746 36.8314 38.0746 36.4999C38.0746 36.1684 37.9429 35.8504 37.7084 35.616L27.8462 25.7539Z" fill="url(#paint0_linear_96_459)"/>
<defs>
<linearGradient id="paint0_linear_96_459" x1="7.32624" y1="7.39255" x2="45.447" y2="15.8213" gradientUnits="userSpaceOnUse">
<stop stop-color="#176FEB"/>
<stop offset="1" stop-color="#FF80FF"/>
</linearGradient>
</defs>
</svg>
