<?xml version="1.0" encoding="utf-8"?><!DOCTYPE svg PUBLIC "-//W3C//DTD SVG 1.1//EN" "http://www.w3.org/Graphics/SVG/1.1/DTD/svg11.dtd"><svg xmlns="http://www.w3.org/2000/svg" xmlns:xlink="http://www.w3.org/1999/xlink"><symbol fill="none" viewBox="0 0 12 13" id="Vector" xmlns="http://www.w3.org/2000/svg"><path d="m11.831 6.076-1.201-1.2-4.205-4.2a.601.601 0 0 0-.85 0l-4.205 4.2-1.201 1.2a.6.6 0 0 0 .85.848l.175-.176V11.3a1.2 1.2 0 0 0 1.202 1.2h1.802a.601.601 0 0 0 .6-.6V9.5a.6.6 0 0 1 .601-.6h1.202a.601.601 0 0 1 .6.6v2.4a.6.6 0 0 0 .601.6h1.802a1.202 1.202 0 0 0 1.202-1.2V6.748l.176.176a.601.601 0 0 0 .85-.848Z" fill="#374151"/></symbol><symbol fill="none" viewBox="0 0 14 14" id="annotation" xmlns="http://www.w3.org/2000/svg"><g clip-path="url(#ba)"><path d="M12.6.583H1.4c-.371 0-.727.15-.99.418A1.44 1.44 0 0 0 0 2.01v7.13c0 .378.147.74.41 1.008.263.267.619.417.99.417h2.482l2.24 2.609a.7.7 0 0 0 .527.244.689.689 0 0 0 .527-.244l2.242-2.609H12.6c.371 0 .727-.15.99-.417.262-.268.41-.63.41-1.008v-7.13c0-.378-.148-.74-.41-1.008a1.387 1.387 0 0 0-.99-.418ZM7 7.713H3.5a.694.694 0 0 1-.495-.21.72.72 0 0 1 0-1.007.694.694 0 0 1 .495-.21H7c.186 0 .364.076.495.21a.72.72 0 0 1 0 1.008.694.694 0 0 1-.495.209Zm3.5-2.852h-7a.694.694 0 0 1-.495-.209.72.72 0 0 1 0-1.008.694.694 0 0 1 .495-.209h7c.186 0 .364.075.495.209a.72.72 0 0 1 0 1.008.694.694 0 0 1-.495.209Z" fill="#2C55C9"/></g><defs><clipPath id="ba"><path fill="#fff" d="M0 0h14v14H0z"/></clipPath></defs></symbol><symbol fill="none" viewBox="0 0 12 12" id="black-plus" xmlns="http://www.w3.org/2000/svg"><path fill-rule="evenodd" d="M5.333 5.333v-4a.667.667 0 0 1 1.334 0v4h4a.667.667 0 0 1 0 1.334h-4v4a.667.667 0 1 1-1.334 0v-4h-4a.667.667 0 1 1 0-1.334h4Z" fill="#000"/></symbol><symbol fill="none" viewBox="0 0 12 13" id="chevron-right" xmlns="http://www.w3.org/2000/svg"><path d="M4.01 11.9a.945.945 0 0 1-.554-.182 1.065 1.065 0 0 1-.368-.484 1.16 1.16 0 0 1-.056-.623c.038-.21.133-.401.273-.552L6.59 6.507 3.305 2.955a1.085 1.085 0 0 1-.224-.35 1.154 1.154 0 0 1 .211-1.189.996.996 0 0 1 .328-.236.933.933 0 0 1 .772.008 1 1 0 0 1 .324.241l3.992 4.315c.187.202.292.477.292.763 0 .286-.105.56-.292.762l-3.992 4.315a.962.962 0 0 1-.706.316Z" fill="#9CA3AF"/></symbol><symbol fill="none" viewBox="0 0 12 12" id="cross-icon-toastify" xmlns="http://www.w3.org/2000/svg"><path d="m10.781 2.281-3.75 3.75L10.75 9.75a.684.684 0 0 1 0 1.031.684.684 0 0 1-1.031 0l-3.75-3.719-3.719 3.72a.684.684 0 0 1-1.031 0c-.313-.282-.313-.75 0-1.063L4.937 6 1.22 2.281c-.313-.281-.313-.75 0-1.062.281-.282.75-.282 1.062 0L6 4.969 9.719 1.25c.281-.313.75-.313 1.062 0a.736.736 0 0 1 0 1.031Z" fill="red"/></symbol><symbol fill="none" viewBox="0 0 12 12" id="cross-icon-toastify-success" xmlns="http://www.w3.org/2000/svg"><path d="m10.781 2.281-3.75 3.75L10.75 9.75a.684.684 0 0 1 0 1.031.684.684 0 0 1-1.031 0l-3.75-3.719-3.719 3.72a.684.684 0 0 1-1.031 0c-.313-.282-.313-.75 0-1.063L4.937 6 1.22 2.281c-.313-.281-.313-.75 0-1.062.281-.282.75-.282 1.062 0L6 4.969 9.719 1.25c.281-.313.75-.313 1.062 0a.736.736 0 0 1 0 1.031Z" fill="#019F44"/></symbol><symbol fill="none" viewBox="0 0 80 80" id="error-page-icon" xmlns="http://www.w3.org/2000/svg"><g clip-path="url(#ga)"><path d="M40 79.5c21.815 0 39.5-17.685 39.5-39.5S61.815.5 40 .5.5 18.185.5 40 18.185 79.5 40 79.5Z" stroke="red"/><path d="M40 72c17.673 0 32-14.327 32-32C72 22.327 57.673 8 40 8 22.327 8 8 22.327 8 40c0 17.673 14.327 32 32 32Z" fill="red"/><mask id="gb" style="mask-type:luminance" maskUnits="userSpaceOnUse" x="20" y="20" width="41" height="40"><path d="M60.8 20.8h-40v38.4h40V20.8Z" fill="#fff"/></mask><g mask="url(#gb)" fill="#fff" stroke="#fff"><path d="M41.968 48.8c0 .285-.118.563-.334.77-.218.21-.517.33-.833.33-.315 0-.614-.12-.832-.33a1.068 1.068 0 0 1-.334-.77c0-.285.117-.563.334-.77.218-.21.517-.33.832-.33.316 0 .615.12.833.33.216.207.334.485.334.77Zm-.629-13.688a.676.676 0 0 1 .212.488v7.2a.676.676 0 0 1-.212.488.777.777 0 0 1-.538.212.777.777 0 0 1-.537-.212.676.676 0 0 1-.213-.488v-7.2c0-.179.074-.355.213-.488a.777.777 0 0 1 .537-.212c.206 0 .399.078.538.212Z"/><path d="M42.672 26.934v-.001a2.14 2.14 0 0 0-.797-.762 2.224 2.224 0 0 0-2.148 0 2.138 2.138 0 0 0-.797.762l-.001.001L23.986 51.74l-.001.002a2.054 2.054 0 0 0 .002 2.114c.192.32.467.582.795.765.327.182.698.278 1.074.279h29.89a2.224 2.224 0 0 0 1.073-.28c.327-.181.602-.444.794-.764a2.055 2.055 0 0 0 .004-2.112l-.002-.002-14.943-24.808Zm-5.05-.686c1.41-2.34 4.946-2.34 6.357 0l14.945 24.807c1.386 2.303-.324 5.245-3.18 5.245H25.857c-2.857 0-4.566-2.942-3.18-5.245l14.945-24.807Z"/></g></g><defs><clipPath id="ga"><path fill="#fff" d="M0 0h80v80H0z"/></clipPath></defs></symbol><symbol fill="#fff" viewBox="0 0 1920 1920" stroke="#fff" id="facebook-icon" xmlns="http://www.w3.org/2000/svg"><path d="M1168.737 487.897c44.672-41.401 113.824-36.889 118.9-36.663l289.354-.113 6.317-417.504L1539.65 22.9C1511.675 16.02 1426.053 0 1237.324 0 901.268 0 675.425 235.206 675.425 585.137v93.97H337v451.234h338.425V1920h451.234v-789.66h356.7l62.045-451.233H1126.66v-69.152c0-54.937 14.214-96.112 42.078-122.058" fill-rule="evenodd"/></symbol><symbol fill="none" viewBox="0 0 217 60" id="footer-logo" xmlns="http://www.w3.org/2000/svg"><path d="M9.787 56.895h-4.55V55.69l1.218-.56v-6.468l-1.218-.56v-1.204h4.55v1.204l-1.218.56v6.468l1.218.56v1.204Zm9.025-7.784c.822 0 1.48.224 1.974.672.495.438.742 1.148.742 2.128v4.984h-2.086v-4.466c0-.551-.098-.962-.294-1.232-.196-.28-.508-.42-.938-.42-.634 0-1.068.219-1.302.658-.233.429-.35 1.05-.35 1.862v3.598h-2.086V49.25h1.596l.28.98h.112a2.09 2.09 0 0 1 .616-.63c.243-.168.514-.29.812-.364.299-.084.607-.126.924-.126Zm12.351 0c.822 0 1.48.224 1.974.672.495.438.742 1.148.742 2.128v4.984h-2.086v-4.466c0-.551-.098-.962-.294-1.232-.196-.28-.508-.42-.938-.42-.634 0-1.068.219-1.302.658-.233.429-.35 1.05-.35 1.862v3.598h-2.086V49.25h1.596l.28.98h.112c.168-.262.374-.472.616-.63.243-.168.514-.29.812-.364.3-.084.607-.126.924-.126Zm14.956 3.948c0 .634-.09 1.199-.266 1.694a3.39 3.39 0 0 1-.742 1.26 3.128 3.128 0 0 1-1.162.77 4.485 4.485 0 0 1-1.554.252 4.271 4.271 0 0 1-1.484-.252 3.287 3.287 0 0 1-1.162-.77 3.717 3.717 0 0 1-.77-1.26c-.178-.495-.266-1.06-.266-1.694 0-.85.149-1.564.448-2.142a3.092 3.092 0 0 1 1.288-1.344c.56-.308 1.222-.462 1.988-.462.718 0 1.353.154 1.904.462.55.308.984.756 1.302 1.344.317.578.476 1.292.476 2.142Zm-5.278 0c0 .504.05.928.154 1.274.112.336.284.592.518.77.233.168.536.252.91.252.373 0 .672-.084.896-.252.233-.178.4-.434.504-.77.112-.346.168-.77.168-1.274s-.056-.924-.168-1.26c-.103-.336-.271-.588-.504-.756-.234-.168-.537-.252-.91-.252-.551 0-.952.191-1.204.574-.243.373-.364.938-.364 1.694Zm11.698 3.836-2.912-7.644h2.184l1.47 4.354c.056.168.103.345.14.532.047.186.08.368.098.546.028.177.047.34.056.49h.056c.01-.159.028-.327.056-.504.028-.178.06-.355.098-.532.047-.187.098-.364.154-.532l1.47-4.354h2.184l-2.912 7.644H52.54Zm12.437-7.798c1.026 0 1.81.224 2.352.672.55.438.826 1.115.826 2.03v5.096h-1.456l-.406-1.036h-.056c-.215.27-.439.494-.672.672a2.045 2.045 0 0 1-.784.378c-.29.084-.649.126-1.078.126-.448 0-.854-.084-1.218-.252a1.977 1.977 0 0 1-.84-.798c-.206-.364-.308-.822-.308-1.372 0-.812.285-1.41.854-1.792.57-.392 1.423-.607 2.562-.644l1.33-.042v-.336c0-.402-.107-.696-.322-.882-.206-.187-.495-.28-.868-.28s-.737.056-1.092.168a8.17 8.17 0 0 0-1.064.392l-.686-1.414c.41-.215.863-.383 1.358-.504a6.678 6.678 0 0 1 1.568-.182Zm.294 4.284c-.672.018-1.139.14-1.4.364a1.106 1.106 0 0 0-.392.882c0 .317.093.546.28.686.186.13.43.196.728.196.448 0 .826-.131 1.134-.392.308-.271.462-.649.462-1.134v-.63l-.812.028Zm11.39 1.988c.232 0 .456-.024.671-.07.215-.047.43-.103.644-.168v1.554a4.4 4.4 0 0 1-.84.238 4.839 4.839 0 0 1-1.078.112 3.22 3.22 0 0 1-1.232-.224 1.787 1.787 0 0 1-.854-.77c-.205-.374-.308-.887-.308-1.54v-3.682h-.994v-.882l1.148-.7.602-1.61h1.33v1.624h2.142v1.568H75.75V54.5c0 .289.084.508.252.658.168.14.387.21.658.21Zm9.15-6.258c.709 0 1.315.135 1.82.406.513.27.91.662 1.19 1.176.28.513.42 1.143.42 1.89v1.008H84.31c.019.588.192 1.05.518 1.386.336.336.798.504 1.386.504.495 0 .943-.047 1.344-.14a6.819 6.819 0 0 0 1.246-.462v1.61c-.373.186-.77.322-1.19.406-.41.093-.91.14-1.498.14-.765 0-1.442-.14-2.03-.42a3.215 3.215 0 0 1-1.386-1.302c-.336-.579-.504-1.307-.504-2.184 0-.896.15-1.638.448-2.226.308-.598.733-1.046 1.274-1.344.542-.299 1.172-.448 1.89-.448Zm.013 1.484c-.401 0-.737.13-1.008.392-.261.261-.415.667-.462 1.218h2.926a1.95 1.95 0 0 0-.168-.826 1.25 1.25 0 0 0-.476-.574c-.214-.14-.485-.21-.812-.21Zm17.299 6.3h-2.086v-9.996h5.726v1.736h-3.64v2.576h3.388v1.736h-3.388v3.948Zm15.593-7.644v7.644h-1.596l-.28-.98h-.112a2.024 2.024 0 0 1-.616.644 2.632 2.632 0 0 1-.812.35 3.39 3.39 0 0 1-.924.126c-.541 0-1.017-.098-1.428-.294a2.09 2.09 0 0 1-.952-.91c-.224-.411-.336-.943-.336-1.596V49.25h2.086v4.466c0 .541.098.952.294 1.232.196.28.509.42.938.42.43 0 .761-.098.994-.294.243-.196.411-.481.504-.854.103-.374.154-.831.154-1.372V49.25h2.086Zm8.557 6.118c.234 0 .458-.024.672-.07.215-.047.43-.103.644-.168v1.554a4.4 4.4 0 0 1-.84.238 4.834 4.834 0 0 1-1.078.112c-.457 0-.868-.075-1.232-.224a1.791 1.791 0 0 1-.854-.77c-.205-.374-.308-.887-.308-1.54v-3.682h-.994v-.882l1.148-.7.602-1.61h1.33v1.624h2.142v1.568h-2.142V54.5c0 .289.084.508.252.658.168.14.388.21.658.21Zm13.015-6.118v7.644h-1.596l-.28-.98h-.112a2.035 2.035 0 0 1-.616.644 2.653 2.653 0 0 1-.812.35 3.4 3.4 0 0 1-.924.126c-.542 0-1.018-.098-1.428-.294a2.086 2.086 0 0 1-.952-.91c-.224-.411-.336-.943-.336-1.596V49.25h2.086v4.466c0 .541.098.952.294 1.232.196.28.508.42.938.42.429 0 .76-.098.994-.294.242-.196.41-.481.504-.854.102-.374.154-.831.154-1.372V49.25h2.086Zm9.607-.14c.102 0 .224.004.364.014.14.009.252.023.336.042l-.154 1.96a1.566 1.566 0 0 0-.294-.042 2.153 2.153 0 0 0-.322-.028c-.271 0-.532.037-.784.112a2.012 2.012 0 0 0-.686.322c-.196.149-.355.35-.476.602-.112.242-.168.546-.168.91v3.892h-2.086V49.25h1.582l.308 1.288h.098c.149-.262.336-.5.56-.714.224-.215.48-.388.77-.518.298-.131.616-.196.952-.196Zm8.114 0c.709 0 1.316.135 1.82.406.513.27.91.662 1.19 1.176.28.513.42 1.143.42 1.89v1.008h-4.928c.018.588.191 1.05.518 1.386.336.336.798.504 1.386.504.494 0 .942-.047 1.344-.14a6.843 6.843 0 0 0 1.246-.462v1.61c-.374.186-.77.322-1.19.406-.411.093-.91.14-1.498.14-.766 0-1.442-.14-2.03-.42a3.215 3.215 0 0 1-1.386-1.302c-.336-.579-.504-1.307-.504-2.184 0-.896.149-1.638.448-2.226.308-.598.732-1.046 1.274-1.344.541-.299 1.171-.448 1.89-.448Zm.014 1.484c-.402 0-.738.13-1.008.392-.262.261-.416.667-.462 1.218h2.926a1.95 1.95 0 0 0-.168-.826 1.256 1.256 0 0 0-.476-.574c-.215-.14-.486-.21-.812-.21Zm19.062 6.3h-2.114v-8.232h-2.716v-1.764h7.546v1.764h-2.716v8.232Zm9.405-7.784c.709 0 1.316.135 1.82.406.513.27.91.662 1.19 1.176.28.513.42 1.143.42 1.89v1.008h-4.928c.019.588.191 1.05.518 1.386.336.336.798.504 1.386.504.495 0 .943-.047 1.344-.14a6.816 6.816 0 0 0 1.246-.462v1.61a4.71 4.71 0 0 1-1.19.406c-.411.093-.91.14-1.498.14-.765 0-1.442-.14-2.03-.42a3.215 3.215 0 0 1-1.386-1.302c-.336-.579-.504-1.307-.504-2.184 0-.896.149-1.638.448-2.226.308-.598.733-1.046 1.274-1.344.541-.299 1.171-.448 1.89-.448Zm.014 1.484c-.401 0-.737.13-1.008.392-.261.261-.415.667-.462 1.218h2.926a1.95 1.95 0 0 0-.168-.826 1.25 1.25 0 0 0-.476-.574c-.215-.14-.485-.21-.812-.21Zm11.366 6.44c-.756 0-1.4-.136-1.932-.406-.532-.28-.938-.71-1.218-1.288-.28-.579-.42-1.321-.42-2.226 0-.934.158-1.694.476-2.282.317-.588.756-1.022 1.316-1.302.569-.28 1.222-.42 1.96-.42.522 0 .975.051 1.358.154a5.65 5.65 0 0 1 1.022.364l-.616 1.61c-.327-.131-.635-.238-.924-.322a2.91 2.91 0 0 0-.84-.126c-.364 0-.668.088-.91.266-.243.168-.425.424-.546.77-.112.336-.168.76-.168 1.274 0 .504.06.924.182 1.26.13.326.317.574.56.742.242.158.536.238.882.238.438 0 .826-.056 1.162-.168.336-.122.662-.285.98-.49v1.778c-.318.205-.654.35-1.008.434-.346.093-.784.14-1.316.14Zm9.319-8.61c0 .373-.014.732-.042 1.078a10.79 10.79 0 0 1-.056.728h.112a2.25 2.25 0 0 1 .588-.63 2.2 2.2 0 0 1 .742-.364c.28-.084.574-.126.882-.126.551 0 1.031.098 1.442.294.411.196.728.499.952.91.233.41.35.942.35 1.596v4.984h-2.086v-4.466c0-.551-.103-.962-.308-1.232-.196-.28-.504-.42-.924-.42-.42 0-.751.098-.994.294-.233.196-.401.48-.504.854-.103.373-.154.83-.154 1.372v3.598h-2.086v-10.64h2.086v2.17Z" fill="#fff"/><path d="M17.02 31.043c-1.993 1.094-3.399 2.324-4.22 3.691-.807 1.368-1.21 3.086-1.21 5.157v1.074c0 .39-.078.664-.235.82-.156.143-.423.215-.8.215H6.492c-.364 0-.631-.072-.8-.215-.157-.156-.235-.43-.235-.82V39.89c0-1.94.215-3.581.645-4.922a9.193 9.193 0 0 1 2.128-3.594c1.003-1.042 2.364-2.064 4.082-3.066-1.953-1.12-3.49-2.468-4.609-4.043-1.107-1.589-1.66-3.34-1.66-5.254v-1.895c0-.377.065-.664.195-.86.586-.859 1.407-1.764 2.461-2.714.196-.156.371-.234.528-.234.156 0 .319.078.488.234.573.495 1.055.97 1.445 1.426.39.443.73.872 1.016 1.289.13.208.195.495.195.86v1.894c0 1.067.43 2.194 1.29 3.379.872 1.185 2.063 2.168 3.573 2.949 1.498-.768 2.572-1.693 3.223-2.774a6.76 6.76 0 0 0 .977-3.554v-1.895c0-.377.065-.664.195-.86.56-.846 1.354-1.75 2.383-2.714.195-.156.358-.234.488-.234.156 0 .319.078.488.234.547.495 1.01.97 1.387 1.426.39.443.723.872.996 1.289.13.208.195.495.195.86v1.894c0 2.148-.527 3.958-1.582 5.43-1.041 1.47-2.376 2.669-4.004 3.593 1.537.912 2.787 1.895 3.75 2.95.964 1.041 1.674 2.278 2.13 3.71.455 1.42.683 3.151.683 5.196v1.074c0 .39-.085.664-.254.82-.156.143-.43.215-.82.215h-4.16c-.391 0-.671-.072-.84-.215-.157-.156-.235-.43-.235-.82V39.89c0-1.394-.13-2.605-.39-3.633-.248-1.029-.749-1.953-1.504-2.774-.742-.833-1.85-1.647-3.32-2.441ZM23 5.553a4.5 4.5 0 1 1 9 0v.473a4.5 4.5 0 1 1-9 0v-.473Z" fill="#019F44"/><path d="m54.71 39.436-14.42-19.71h-.419v14.162c0 1.032.075 1.828.226 2.387.172.56.527.968 1.064 1.226.538.236 1.377.387 2.516.451v1.259a19.79 19.79 0 0 0-1.838-.065 88.485 88.485 0 0 0-4.807 0c-.71 0-1.29.021-1.742.065v-1.259c.947-.064 1.645-.215 2.097-.451.473-.258.785-.656.936-1.194.172-.537.258-1.269.258-2.193v-13.71c0-.796-.076-1.376-.226-1.742-.15-.365-.462-.623-.936-.774-.451-.15-1.16-.237-2.129-.258v-1.258c.495.021 1.14.043 1.936.064a95.93 95.93 0 0 0 2.58.033c.947 0 1.828-.011 2.646-.033.817-.021 1.537-.043 2.16-.064l9.775 13.484h.42v-8.162c0-1.053-.087-1.85-.259-2.387-.15-.559-.494-.967-1.032-1.226-.538-.258-1.365-.408-2.484-.451v-1.258a90.804 90.804 0 0 0 6.613.064 89.41 89.41 0 0 0 1.742-.064v1.258c-.925.064-1.624.215-2.097.451-.473.237-.785.624-.935 1.162-.15.537-.226 1.28-.226 2.226v17.967h-1.42Zm13.465-.225v-1.259c.731-.129 1.355-.354 1.87-.677.538-.323 1.033-.806 1.485-1.452.451-.666.914-1.526 1.387-2.58l7.548-17.097h1.161l9.033 18.903c.494 1.032 1.021 1.764 1.58 2.194.581.43 1.344.666 2.29.71v1.258a47.427 47.427 0 0 0-2.709-.065 187.94 187.94 0 0 0-3.71-.032c-1.548 0-2.87.01-3.967.032-1.097 0-1.936.021-2.517.065v-1.259c1.076-.021 1.871-.129 2.388-.322.537-.215.838-.538.903-.968.064-.43-.075-1-.42-1.71l-6.064-12.806.839-.323-4.42 10.13c-.58 1.29-.881 2.376-.903 3.258 0 .881.28 1.548.839 2 .58.451 1.473.698 2.677.741v1.259a83.29 83.29 0 0 0-2.161-.033 49.704 49.704 0 0 0-1.71-.032 35.698 35.698 0 0 0-1.548-.032c-.731 0-1.409.01-2.032.032-.624 0-1.237.021-1.84.065Zm5.87-7.065.55-1.258h9.87l.58 1.258h-11Zm32.193 7.065v-1.259c1.247-.021 2.182-.096 2.806-.225.624-.15 1.043-.43 1.258-.84.215-.43.323-1.074.323-1.935V17.727h-.71c-.968 0-1.817.236-2.548.71-.71.472-1.323 1.225-1.839 2.257-.516 1.033-.968 2.366-1.355 4h-1.322c.193-1.376.333-2.752.419-4.129.086-1.398.14-2.795.161-4.193.968.021 2.032.043 3.194.064 1.183.022 2.365.033 3.548.033h6.452c1.183 0 2.365-.011 3.548-.033a805.47 805.47 0 0 0 3.226-.064c0 1.42.043 2.817.129 4.193.108 1.377.247 2.753.419 4.13h-1.29c-.301-1.226-.634-2.28-1-3.162-.366-.882-.785-1.602-1.258-2.161-.452-.56-.968-.968-1.548-1.226-.581-.28-1.237-.42-1.968-.42h-.71v17.226c0 .86.108 1.506.323 1.936.215.409.634.688 1.258.839.645.129 1.591.204 2.838.225v1.259c-.774-.022-1.806-.044-3.096-.065a250.795 250.795 0 0 0-8.162 0c-1.29.022-2.322.043-3.096.065Zm64.189.225-9-18.903c-.495-1.032-1.032-1.763-1.613-2.194-.559-.43-1.312-.666-2.258-.71v-1.257c.71.021 1.602.043 2.677.064 1.076.022 2.312.033 3.71.033 1.527 0 2.839-.011 3.936-.033a155.38 155.38 0 0 0 2.548-.064v1.258c-1.032.021-1.817.14-2.355.355-.538.193-.839.505-.903.935-.043.43.097 1 .419 1.71l6.065 12.806-.871.323 4.419-10.13c.581-1.311.882-2.397.903-3.257.022-.882-.258-1.549-.838-2-.581-.473-1.463-.72-2.646-.742v-1.258c.818.021 1.527.043 2.129.064.624 0 1.194.011 1.71.033h1.549c.752 0 1.44-.011 2.064-.033.624-.021 1.226-.043 1.807-.064v1.258c-.71.107-1.334.333-1.871.677-.538.323-1.033.807-1.484 1.452-.43.645-.882 1.505-1.355 2.58l-7.581 17.097h-1.161Zm23.496-.225v-1.259c.968-.043 1.678-.129 2.129-.258.473-.129.785-.387.936-.774.15-.387.225-.968.225-1.742V20.404c0-.774-.075-1.344-.225-1.71-.151-.387-.463-.655-.936-.806-.451-.15-1.161-.237-2.129-.258v-1.258a590.884 590.884 0 0 0 11.194.097h2.838c.882-.022 1.699-.033 2.452-.033.753-.021 1.43-.043 2.032-.064 0 1.247.043 2.484.129 3.71.086 1.204.215 2.397.387 3.58h-1.29c-.301-1.398-.71-2.527-1.226-3.387-.494-.882-1.107-1.527-1.838-1.935-.71-.41-1.57-.613-2.581-.613h-3.258v17.935c0 .624.054 1.097.161 1.42.108.322.312.537.613.645.323.086.785.129 1.387.129h.645c1.162 0 2.205-.258 3.129-.775.925-.516 1.742-1.311 2.452-2.387.71-1.096 1.344-2.483 1.903-4.16h1.29c-.15 1.59-.268 3.107-.354 4.547-.065 1.42-.086 2.796-.065 4.13a96.918 96.918 0 0 0-3.806-.065 359.877 359.877 0 0 0-5.194-.032c-2.473 0-4.634.01-6.484.032-1.849 0-3.355.021-4.516.065Zm7.807-10.871v-1.226h5.935v1.226h-5.935Zm6.419 4.225c-.108-.967-.323-1.763-.645-2.387-.301-.623-.721-1.086-1.258-1.387-.516-.3-1.162-.451-1.936-.451v-1.226c1.032 0 1.86-.355 2.484-1.065.645-.731 1.065-1.785 1.258-3.161h1.226c-.086 1.269-.129 2.247-.129 2.935.021.689.032 1.323.032 1.904v1.322c.022.43.043.925.065 1.484.043.56.086 1.237.129 2.032h-1.226Z" fill="#fff"/><path d="M135.22 39.21v-1.258c.968-.043 1.677-.129 2.129-.258.473-.129.785-.387.936-.774.15-.387.225-.968.225-1.742V20.404c0-.796-.075-1.376-.225-1.742-.151-.387-.463-.645-.936-.774-.452-.15-1.161-.237-2.129-.258v-1.258a187.936 187.936 0 0 0 6.194.097 168.752 168.752 0 0 0 5.935-.097v1.258c-.968.021-1.688.107-2.161.258-.452.129-.753.387-.903.774-.151.366-.226.946-.226 1.742v14.774c0 .774.075 1.355.226 1.742.15.366.462.624.935.774.473.13 1.183.215 2.129.258v1.259a36.294 36.294 0 0 0-2.452-.065 168.752 168.752 0 0 0-3.483-.032c-1.398 0-2.635.01-3.71.032-1.054 0-1.882.021-2.484.065ZM137 8.5a4.5 4.5 0 0 1 9 0v1a4.5 4.5 0 0 1-9 0v-1Z" fill="#019F44"/></symbol><symbol viewBox="0 0 24 24" fill="none" id="instagram-svgrepo-com" xmlns="http://www.w3.org/2000/svg"><g fill="#fff"><path fill-rule="evenodd" clip-rule="evenodd" d="M12 18a6 6 0 1 0 0-12 6 6 0 0 0 0 12Zm0-2a4 4 0 1 0 0-8 4 4 0 0 0 0 8Z"/><path d="M18 5a1 1 0 1 0 0 2 1 1 0 0 0 0-2Z"/><path fill-rule="evenodd" clip-rule="evenodd" d="M1.654 4.276C1 5.56 1 7.24 1 10.6v2.8c0 3.36 0 5.04.654 6.324a6 6 0 0 0 2.622 2.622C5.56 23 7.24 23 10.6 23h2.8c3.36 0 5.04 0 6.324-.654a6 6 0 0 0 2.622-2.622C23 18.44 23 16.76 23 13.4v-2.8c0-3.36 0-5.04-.654-6.324a6 6 0 0 0-2.622-2.622C18.44 1 16.76 1 13.4 1h-2.8c-3.36 0-5.04 0-6.324.654a6 6 0 0 0-2.622 2.622ZM13.4 3h-2.8c-1.713 0-2.878.002-3.778.075-.877.072-1.325.202-1.638.361a4 4 0 0 0-1.748 1.748c-.16.313-.29.761-.36 1.638C3.001 7.722 3 8.887 3 10.6v2.8c0 1.713.002 2.878.075 3.778.072.877.202 1.325.361 1.638a4 4 0 0 0 1.748 1.748c.313.16.761.29 1.638.36.9.074 2.065.076 3.778.076h2.8c1.713 0 2.878-.002 3.778-.075.877-.072 1.325-.202 1.638-.361a4 4 0 0 0 1.748-1.748c.16-.313.29-.761.36-1.638.074-.9.076-2.065.076-3.778v-2.8c0-1.713-.002-2.878-.075-3.778-.072-.877-.202-1.325-.361-1.638a4 4 0 0 0-1.748-1.748c-.313-.16-.761-.29-1.638-.36C16.278 3.001 15.113 3 13.4 3Z"/></g></symbol><symbol viewBox="0 0 20 20" id="linkedIn-icon" xmlns="http://www.w3.org/2000/svg"><path d="M20 20h-4v-6.999c0-1.92-.847-2.991-2.366-2.991-1.653 0-2.634 1.116-2.634 2.991V20H7V7h4v1.462s1.255-2.202 4.083-2.202C17.912 6.26 20 7.986 20 11.558V20ZM2.442 4.921A2.451 2.451 0 0 1 0 2.46 2.451 2.451 0 0 1 2.442 0a2.451 2.451 0 0 1 2.441 2.46 2.45 2.45 0 0 1-2.441 2.461ZM0 20h5V7H0v13Z" fill="#fff" fill-rule="evenodd"/></symbol><symbol fill="none" viewBox="0 0 256 64" id="logo" xmlns="http://www.w3.org/2000/svg"><g clip-path="url(#pa)"><path d="M2 39.88c0-1.2.013-2.653.04-4.36.027-1.733.053-3.587.08-5.56l.16-6.04c.053-2.053.107-4 .16-5.84.08-1.867.147-3.507.2-4.92.053-1.44.107-2.533.16-3.28a56.17 56.17 0 0 1 2.92-.12c1.28-.027 2.867-.04 4.76-.04a637.093 637.093 0 0 1 6.84 10.32c2.4 3.627 4.84 7.507 7.32 11.64l-.88-22c.693 0 1.44.027 2.24.08.827.027 1.627.067 2.4.12 0 2.24-.013 4.64-.04 7.2l-.08 7.56a501.43 501.43 0 0 1-.28 12.4c-.027 1.467-.067 2.427-.12 2.88a121.557 121.557 0 0 1-5.12.12c-.96.027-1.747.04-2.36.04a279.345 279.345 0 0 0-7.04-10.88A851.41 851.41 0 0 0 5.6 17.84l1.04 22.28c-1.493 0-3.04-.08-4.64-.24Zm44.95-6.12h-2.16a70.738 70.738 0 0 1-2.24-.12 312.957 312.957 0 0 0-1.76 6.52l-4.8-.32c1.494-5.04 3.16-10.12 5-15.24 1.84-5.147 3.8-10.147 5.88-15 .987-.107 2.08-.2 3.28-.28 1.227-.08 2.48-.12 3.76-.12 1.627 3.947 3.36 8.507 5.2 13.68a663.89 663.89 0 0 1 5.68 16.72 59.416 59.416 0 0 1-4.4.6c-1.36.133-2.746.2-4.16.2-.56-2.24-1.186-4.6-1.88-7.08-2.373.293-4.84.44-7.4.44Zm1.56-19.88c-.56 1.52-1.266 3.627-2.12 6.32a396.364 396.364 0 0 0-2.76 9.48 42.89 42.89 0 0 0 3.28.28c1.147.053 2.374.08 3.68.08h1.44c.507-.027.974-.04 1.4-.04-.586-2.133-1.186-4.2-1.8-6.2a227.4 227.4 0 0 0-1.68-5.56 120.978 120.978 0 0 0-1.44-4.36Zm35.305 26.2c-.667 0-1.493-.013-2.48-.04-.96 0-1.947-.013-2.96-.04-.987-.027-1.853-.053-2.6-.08v-4.4c.027-1.76.04-3.64.04-5.64.027-2.027.04-4.04.04-6.04.027-2.027.053-3.92.08-5.68.027-1.787.053-3.307.08-4.56-2 .027-3.947.053-5.84.08h-5.2l.16-4c1.707 0 3.547.013 5.52.04 1.973 0 3.987.013 6.04.04 2.053 0 4.04.013 5.96.04 1.947 0 3.733.013 5.36.04 1.627 0 3 .013 4.12.04 1.147 0 1.92.013 2.32.04l.12 3.36c-1.467.053-3.147.107-5.04.16-1.893.027-3.88.053-5.96.08.027 1.2.053 2.64.08 4.32.027 1.68.04 3.507.04 5.48.027 1.947.04 3.92.04 5.92.027 2 .04 3.933.04 5.8.027 1.867.04 3.547.04 5.04Zm19.141-.04c.32-6.48.48-13.067.48-19.76 0-1.12-.013-2.347-.04-3.68 0-1.36-.013-2.64-.04-3.84 0-1.2-.013-2.16-.04-2.88.32-.053.854-.093 1.6-.12a73.51 73.51 0 0 1 2.52-.04c.72 0 1.427.013 2.12.04.72.027 1.334.067 1.84.12a315.687 315.687 0 0 0-.12 4.96c-.026 1.653-.053 3.227-.08 4.72v3.84c0 3.627.04 6.773.12 9.44.107 2.667.254 5.027.44 7.08-1.44.053-2.906.08-4.4.08-1.466.027-2.933.04-4.4.04Zm28.094.36c-1.68-4.133-3.453-8.8-5.32-14a777.32 777.32 0 0 1-5.56-16.4 45.453 45.453 0 0 1 4.48-.6 42.63 42.63 0 0 1 4.08-.2c.614 2.4 1.254 4.867 1.92 7.4.694 2.533 1.387 5 2.08 7.4.72 2.4 1.4 4.613 2.04 6.64.64 2.027 1.2 3.72 1.68 5.08.587-1.6 1.294-3.747 2.12-6.44.827-2.693 1.72-5.747 2.68-9.16.96-3.413 1.934-7 2.92-10.76l4.8.32a245.035 245.035 0 0 1-5 15.4c-1.84 5.147-3.8 10.12-5.88 14.92l-7.04.4Zm46.819-.2c-.933-.08-2.427-.147-4.48-.2-2.027-.08-4.467-.133-7.32-.16-2.827-.027-5.907-.04-9.24-.04-.053-.747-.12-1.88-.2-3.4-.053-1.547-.12-3.307-.2-5.28-.08-1.973-.16-4.027-.24-6.16-.08-2.133-.147-4.187-.2-6.16-.053-2-.107-3.773-.16-5.32a216.75 216.75 0 0 1-.04-3.48h4.04c1.547-.027 3.16-.053 4.84-.08l5-.08a345.59 345.59 0 0 1 4.6-.12c1.44-.053 2.653-.093 3.64-.12l.16 4.28-14.28-.48v4.8c0 1.6.013 3.173.04 4.72l13.44-.44-.16 4.4-13.24-.56c.027 1.893.053 3.693.08 5.4.027 1.707.067 3.253.12 4.64l13.96-.48-.16 4.32ZM10.062 57h-5.66v-9.994h5.66v1.38h-4.02v2.715h3.767v1.374H6.042v3.137h4.02V57Zm10.5 0h-2.017l-4.895-7.977h-.061c.018.268.034.553.048.854.018.3.032.61.04.93.014.319.026.642.035.97V57h-1.49v-9.994h2.003l4.887 7.923h.048c-.009-.233-.02-.5-.034-.8l-.041-.93c-.01-.323-.016-.636-.02-.936v-5.257h1.496V57Zm6.658-5.428h3.732v5.018c-.524.173-1.066.307-1.627.403-.56.096-1.19.144-1.886.144-1.017 0-1.878-.2-2.584-.602a3.919 3.919 0 0 1-1.6-1.757c-.365-.77-.547-1.697-.547-2.782 0-1.044.203-1.948.608-2.714a4.232 4.232 0 0 1 1.77-1.784c.776-.424 1.715-.636 2.817-.636.543 0 1.067.055 1.573.164.51.105.977.251 1.401.438l-.574 1.353a6.47 6.47 0 0 0-1.135-.403 5.15 5.15 0 0 0-1.306-.164c-.715 0-1.333.155-1.852.465-.515.31-.912.747-1.19 1.312-.278.56-.417 1.224-.417 1.99 0 .742.112 1.394.335 1.955.224.56.572.998 1.046 1.312.479.31 1.096.465 1.853.465.378 0 .7-.02.964-.062.264-.04.508-.086.731-.136v-2.577H27.22v-1.402ZM33.345 57v-9.994h1.64V57h-1.64Zm12.619 0h-2.017l-4.894-7.977h-.062c.018.268.034.553.048.854.018.3.032.61.041.93.014.319.025.642.034.97V57h-1.49v-9.994h2.003l4.888 7.923h.047c-.009-.233-.02-.5-.034-.8l-.04-.93c-.01-.323-.017-.636-.021-.936v-5.257h1.497V57Zm8.285 0h-5.66v-9.994h5.66v1.38h-4.02v2.715h3.767v1.374H50.23v3.137h4.02V57Zm7.82 0h-5.66v-9.994h5.66v1.38h-4.02v2.715h3.767v1.374H58.05v3.137h4.02V57Zm4.97-9.994c.861 0 1.572.105 2.133.314.565.21.984.529 1.258.957.278.429.417.973.417 1.634 0 .492-.091.912-.274 1.258a2.594 2.594 0 0 1-.717.861 4.05 4.05 0 0 1-.95.547L71.741 57H69.89l-2.413-4.006H65.87V57h-1.64v-9.994h2.81Zm-.11 1.367H65.87v3.268h1.135c.761 0 1.312-.142 1.654-.424.346-.283.52-.7.52-1.251 0-.579-.185-.99-.554-1.23-.365-.242-.93-.363-1.695-.363ZM73.172 57v-9.994h1.64V57h-1.64Zm12.619 0h-2.017l-4.894-7.977h-.062c.019.268.035.553.048.854.019.3.032.61.041.93.014.319.025.642.034.97V57h-1.49v-9.994h2.003l4.888 7.923h.048c-.01-.233-.02-.5-.034-.8-.014-.3-.028-.61-.041-.93-.01-.323-.016-.636-.021-.936v-5.257h1.497V57Zm6.658-5.428h3.733v5.018c-.524.173-1.067.307-1.627.403-.56.096-1.19.144-1.887.144-1.016 0-1.878-.2-2.584-.602a3.919 3.919 0 0 1-1.6-1.757c-.364-.77-.547-1.697-.547-2.782 0-1.044.203-1.948.609-2.714a4.232 4.232 0 0 1 1.77-1.784c.775-.424 1.714-.636 2.817-.636.542 0 1.066.055 1.572.164.51.105.978.251 1.402.438l-.575 1.353a6.468 6.468 0 0 0-1.135-.403 5.15 5.15 0 0 0-1.305-.164c-.716 0-1.333.155-1.853.465-.515.31-.911.747-1.19 1.312-.277.56-.416 1.224-.416 1.99 0 .742.111 1.394.335 1.955.223.56.572.998 1.046 1.312.478.31 1.096.465 1.852.465.379 0 .7-.02.964-.062.264-.04.508-.086.732-.136v-2.577h-2.113v-1.402ZM103.837 57h-1.627v-9.994h5.646v1.38h-4.019v3.118h3.76v1.374h-3.76V57Zm14.711-5.01c0 .77-.098 1.471-.294 2.105a4.515 4.515 0 0 1-.868 1.627c-.388.45-.873.8-1.456 1.046-.584.246-1.267.369-2.051.369-.798 0-1.49-.123-2.078-.37a3.824 3.824 0 0 1-1.456-1.052 4.56 4.56 0 0 1-.862-1.634 7.275 7.275 0 0 1-.287-2.105c0-1.03.169-1.928.506-2.694a3.896 3.896 0 0 1 1.552-1.79c.697-.43 1.577-.643 2.639-.643 1.039 0 1.902.212 2.59.635a3.9 3.9 0 0 1 1.545 1.791c.347.766.52 1.67.52 2.714Zm-7.629 0c0 .77.105 1.437.314 2.002.21.56.531.994.964 1.299.438.3.998.451 1.682.451.688 0 1.249-.15 1.682-.451.432-.305.751-.738.957-1.299.205-.565.307-1.233.307-2.003 0-1.171-.235-2.087-.704-2.748-.465-.665-1.208-.998-2.228-.998-.684 0-1.247.15-1.689.451-.437.301-.761.732-.971 1.292-.209.556-.314 1.224-.314 2.003Zm12.585-4.984c.861 0 1.572.105 2.133.314.565.21.984.529 1.258.957.278.429.417.973.417 1.634 0 .492-.092.912-.274 1.258a2.583 2.583 0 0 1-.718.861c-.296.228-.613.41-.95.547L128.207 57h-1.853l-2.413-4.006h-1.606V57h-1.641v-9.994h2.81Zm-.109 1.367h-1.06v3.268h1.135c.761 0 1.312-.142 1.654-.424.346-.283.52-.7.52-1.251 0-.579-.185-.99-.554-1.23-.365-.242-.93-.363-1.695-.363ZM134.899 57h-1.627v-9.994h5.647v1.38h-4.02v3.118h3.76v1.374h-3.76V57Zm13.686-9.994v6.467c0 .697-.148 1.321-.444 1.873-.292.551-.734.989-1.327 1.312-.592.32-1.337.479-2.235.479-1.28 0-2.256-.335-2.926-1.005-.665-.675-.998-1.57-.998-2.687v-6.44h1.641v6.297c0 .834.196 1.449.588 1.846.392.396.977.594 1.757.594.537 0 .975-.093 1.312-.28.342-.192.593-.47.752-.834.164-.37.246-.813.246-1.333v-6.29h1.634ZM154.607 57h-1.647v-8.6h-2.926v-1.394h7.492V48.4h-2.919V57Zm12.298-9.994v6.467c0 .697-.148 1.321-.444 1.873-.292.551-.734.989-1.326 1.312-.593.32-1.338.479-2.236.479-1.28 0-2.255-.335-2.925-1.005-.666-.675-.998-1.57-.998-2.687v-6.44h1.64v6.297c0 .834.196 1.449.588 1.846.392.396.978.594 1.757.594.538 0 .975-.093 1.312-.28.342-.192.593-.47.752-.834.164-.37.246-.813.246-1.333v-6.29h1.634Zm5.366 0c.862 0 1.573.105 2.133.314.565.21.985.529 1.258.957.278.429.417.973.417 1.634 0 .492-.091.912-.273 1.258a2.607 2.607 0 0 1-.718.861c-.296.228-.613.41-.95.547L176.975 57h-1.853l-2.413-4.006h-1.606V57h-1.641v-9.994h2.809Zm-.109 1.367h-1.059v3.268h1.134c.761 0 1.313-.142 1.655-.424.346-.283.519-.7.519-1.251 0-.579-.184-.99-.554-1.23-.364-.242-.929-.363-1.695-.363ZM184.063 57h-5.66v-9.994h5.66v1.38h-4.019v2.715h3.767v1.374h-3.767v3.137h4.019V57ZM199 31.833c0-13.8 11.187-24.986 24.987-24.986 13.799 0 24.986 11.187 24.986 24.986v3.18c0 13.8-11.187 24.987-24.986 24.987C210.187 60 199 48.813 199 35.014v-3.18Z" fill="#fff"/><path d="M215.122 47.453c-1.146 0-2-.467-2.56-1.4-.56-.934-.84-1.987-.84-3.16 0-.694.08-1.374.24-2.04.187-.694.454-1.32.8-1.88.294.053.56.093.8.12.267.026.52.04.76.04 1.734 0 3.227-.507 4.48-1.52 1.28-1.014 2.294-2.334 3.04-3.96a55.204 55.204 0 0 0-1.48-3.88c-.533-1.28-1.106-2.334-1.72-3.16-.586-.827-1.24-1.24-1.96-1.24-.426 0-.84.186-1.24.56-.4.346-.64.866-.72 1.56l-.52-.08c.027-3.2.467-5.534 1.32-7 .88-1.494 1.974-2.24 3.28-2.24 1.04 0 1.974.4 2.8 1.2.827.773 1.56 1.773 2.2 3a31.44 31.44 0 0 1 1.76 3.72c.507 1.28.96 2.413 1.36 3.4.56-2.56 1.307-4.667 2.24-6.32.96-1.68 2-2.934 3.12-3.76 1.12-.827 2.174-1.24 3.16-1.24 1.04 0 1.8.386 2.28 1.16.48.746.72 1.68.72 2.8 0 .826-.133 1.72-.4 2.68-.24.933-.6 1.826-1.08 2.68a5.104 5.104 0 0 0-2.24-.52c-1.253 0-2.44.48-3.56 1.44-1.12.933-2.093 2.306-2.92 4.12.88 1.92 1.627 3.44 2.24 4.56.614 1.12 1.12 1.946 1.52 2.48.4.506.747.84 1.04 1 .294.16.56.24.8.24.987 0 1.56-.654 1.72-1.96l.48.08c0 2.693-.44 4.786-1.32 6.28-.88 1.493-2.133 2.24-3.76 2.24-1.04 0-2-.347-2.88-1.04-.853-.72-1.68-1.854-2.48-3.4-.8-1.547-1.666-3.574-2.6-6.08-.373 2.24-1 4.146-1.88 5.72-.853 1.573-1.813 2.773-2.88 3.6-1.066.8-2.106 1.2-3.12 1.2Z" fill="#E7503D"/><path d="M238 4a5 5 0 0 1 10 0 5 5 0 0 1-10 0Z" fill="#fff"/><path fill="#E7503D" d="M190.293 5.037h1.561v54.154h-1.561z"/></g><defs><clipPath id="pa"><path fill="#fff" d="M0 0h256v64H0z"/></clipPath></defs></symbol><symbol fill="none" viewBox="0 0 217 60" id="logo-green" xmlns="http://www.w3.org/2000/svg"><path d="M9.787 56.895h-4.55V55.69l1.218-.56v-6.468l-1.218-.56v-1.204h4.55v1.204l-1.218.56v6.468l1.218.56v1.204Zm9.025-7.784c.822 0 1.48.224 1.974.672.495.438.742 1.148.742 2.128v4.984h-2.086v-4.466c0-.551-.098-.962-.294-1.232-.196-.28-.508-.42-.938-.42-.634 0-1.068.219-1.302.658-.233.429-.35 1.05-.35 1.862v3.598h-2.086V49.25h1.596l.28.98h.112a2.09 2.09 0 0 1 .616-.63c.243-.168.514-.29.812-.364.299-.084.607-.126.924-.126Zm12.351 0c.822 0 1.48.224 1.974.672.495.438.742 1.148.742 2.128v4.984h-2.086v-4.466c0-.551-.098-.962-.294-1.232-.196-.28-.508-.42-.938-.42-.634 0-1.068.219-1.302.658-.233.429-.35 1.05-.35 1.862v3.598h-2.086V49.25h1.596l.28.98h.112c.168-.262.374-.472.616-.63.243-.168.514-.29.812-.364.3-.084.607-.126.924-.126Zm14.956 3.948c0 .634-.09 1.199-.266 1.694a3.39 3.39 0 0 1-.742 1.26 3.128 3.128 0 0 1-1.162.77 4.485 4.485 0 0 1-1.554.252 4.271 4.271 0 0 1-1.484-.252 3.287 3.287 0 0 1-1.162-.77 3.717 3.717 0 0 1-.77-1.26c-.178-.495-.266-1.06-.266-1.694 0-.85.149-1.564.448-2.142a3.092 3.092 0 0 1 1.288-1.344c.56-.308 1.222-.462 1.988-.462.718 0 1.353.154 1.904.462.55.308.984.756 1.302 1.344.317.578.476 1.292.476 2.142Zm-5.278 0c0 .504.05.928.154 1.274.112.336.284.592.518.77.233.168.536.252.91.252.373 0 .672-.084.896-.252.233-.178.4-.434.504-.77.112-.346.168-.77.168-1.274s-.056-.924-.168-1.26c-.103-.336-.271-.588-.504-.756-.234-.168-.537-.252-.91-.252-.551 0-.952.191-1.204.574-.243.373-.364.938-.364 1.694Zm11.698 3.836-2.912-7.644h2.184l1.47 4.354c.056.168.103.345.14.532.047.186.08.368.098.546.028.177.047.34.056.49h.056c.01-.159.028-.327.056-.504.028-.178.06-.355.098-.532.047-.187.098-.364.154-.532l1.47-4.354h2.184l-2.912 7.644H52.54Zm12.437-7.798c1.026 0 1.81.224 2.352.672.55.438.826 1.115.826 2.03v5.096h-1.456l-.406-1.036h-.056c-.215.27-.439.494-.672.672a2.045 2.045 0 0 1-.784.378c-.29.084-.649.126-1.078.126-.448 0-.854-.084-1.218-.252a1.977 1.977 0 0 1-.84-.798c-.206-.364-.308-.822-.308-1.372 0-.812.285-1.41.854-1.792.57-.392 1.423-.607 2.562-.644l1.33-.042v-.336c0-.402-.107-.696-.322-.882-.206-.187-.495-.28-.868-.28s-.737.056-1.092.168a8.17 8.17 0 0 0-1.064.392l-.686-1.414c.41-.215.863-.383 1.358-.504a6.678 6.678 0 0 1 1.568-.182Zm.294 4.284c-.672.018-1.139.14-1.4.364a1.106 1.106 0 0 0-.392.882c0 .317.093.546.28.686.186.13.43.196.728.196.448 0 .826-.131 1.134-.392.308-.271.462-.649.462-1.134v-.63l-.812.028Zm11.39 1.988c.232 0 .456-.024.671-.07.215-.047.43-.103.644-.168v1.554a4.4 4.4 0 0 1-.84.238 4.839 4.839 0 0 1-1.078.112 3.22 3.22 0 0 1-1.232-.224 1.787 1.787 0 0 1-.854-.77c-.205-.374-.308-.887-.308-1.54v-3.682h-.994v-.882l1.148-.7.602-1.61h1.33v1.624h2.142v1.568H75.75V54.5c0 .289.084.508.252.658.168.14.387.21.658.21Zm9.15-6.258c.709 0 1.315.135 1.82.406.513.27.91.662 1.19 1.176.28.513.42 1.143.42 1.89v1.008H84.31c.019.588.192 1.05.518 1.386.336.336.798.504 1.386.504.495 0 .943-.047 1.344-.14a6.819 6.819 0 0 0 1.246-.462v1.61c-.373.186-.77.322-1.19.406-.41.093-.91.14-1.498.14-.765 0-1.442-.14-2.03-.42a3.215 3.215 0 0 1-1.386-1.302c-.336-.579-.504-1.307-.504-2.184 0-.896.15-1.638.448-2.226.308-.598.733-1.046 1.274-1.344.542-.299 1.172-.448 1.89-.448Zm.013 1.484c-.401 0-.737.13-1.008.392-.261.261-.415.667-.462 1.218h2.926a1.95 1.95 0 0 0-.168-.826 1.25 1.25 0 0 0-.476-.574c-.214-.14-.485-.21-.812-.21Zm17.299 6.3h-2.086v-9.996h5.726v1.736h-3.64v2.576h3.388v1.736h-3.388v3.948Zm15.593-7.644v7.644h-1.596l-.28-.98h-.112a2.024 2.024 0 0 1-.616.644 2.632 2.632 0 0 1-.812.35 3.39 3.39 0 0 1-.924.126c-.541 0-1.017-.098-1.428-.294a2.09 2.09 0 0 1-.952-.91c-.224-.411-.336-.943-.336-1.596V49.25h2.086v4.466c0 .541.098.952.294 1.232.196.28.509.42.938.42.43 0 .761-.098.994-.294.243-.196.411-.481.504-.854.103-.374.154-.831.154-1.372V49.25h2.086Zm8.557 6.118c.234 0 .458-.024.672-.07.215-.047.43-.103.644-.168v1.554a4.4 4.4 0 0 1-.84.238 4.834 4.834 0 0 1-1.078.112c-.457 0-.868-.075-1.232-.224a1.791 1.791 0 0 1-.854-.77c-.205-.374-.308-.887-.308-1.54v-3.682h-.994v-.882l1.148-.7.602-1.61h1.33v1.624h2.142v1.568h-2.142V54.5c0 .289.084.508.252.658.168.14.388.21.658.21Zm13.015-6.118v7.644h-1.596l-.28-.98h-.112a2.035 2.035 0 0 1-.616.644 2.653 2.653 0 0 1-.812.35 3.4 3.4 0 0 1-.924.126c-.542 0-1.018-.098-1.428-.294a2.086 2.086 0 0 1-.952-.91c-.224-.411-.336-.943-.336-1.596V49.25h2.086v4.466c0 .541.098.952.294 1.232.196.28.508.42.938.42.429 0 .76-.098.994-.294.242-.196.41-.481.504-.854.102-.374.154-.831.154-1.372V49.25h2.086Zm9.607-.14c.102 0 .224.004.364.014.14.009.252.023.336.042l-.154 1.96a1.566 1.566 0 0 0-.294-.042 2.153 2.153 0 0 0-.322-.028c-.271 0-.532.037-.784.112a2.012 2.012 0 0 0-.686.322c-.196.149-.355.35-.476.602-.112.242-.168.546-.168.91v3.892h-2.086V49.25h1.582l.308 1.288h.098c.149-.262.336-.5.56-.714.224-.215.48-.388.77-.518.298-.131.616-.196.952-.196Zm8.114 0c.709 0 1.316.135 1.82.406.513.27.91.662 1.19 1.176.28.513.42 1.143.42 1.89v1.008h-4.928c.018.588.191 1.05.518 1.386.336.336.798.504 1.386.504.494 0 .942-.047 1.344-.14a6.843 6.843 0 0 0 1.246-.462v1.61c-.374.186-.77.322-1.19.406-.411.093-.91.14-1.498.14-.766 0-1.442-.14-2.03-.42a3.215 3.215 0 0 1-1.386-1.302c-.336-.579-.504-1.307-.504-2.184 0-.896.149-1.638.448-2.226.308-.598.732-1.046 1.274-1.344.541-.299 1.171-.448 1.89-.448Zm.014 1.484c-.402 0-.738.13-1.008.392-.262.261-.416.667-.462 1.218h2.926a1.95 1.95 0 0 0-.168-.826 1.256 1.256 0 0 0-.476-.574c-.215-.14-.486-.21-.812-.21Zm19.062 6.3h-2.114v-8.232h-2.716v-1.764h7.546v1.764h-2.716v8.232Zm9.405-7.784c.709 0 1.316.135 1.82.406.513.27.91.662 1.19 1.176.28.513.42 1.143.42 1.89v1.008h-4.928c.019.588.191 1.05.518 1.386.336.336.798.504 1.386.504.495 0 .943-.047 1.344-.14a6.816 6.816 0 0 0 1.246-.462v1.61a4.71 4.71 0 0 1-1.19.406c-.411.093-.91.14-1.498.14-.765 0-1.442-.14-2.03-.42a3.215 3.215 0 0 1-1.386-1.302c-.336-.579-.504-1.307-.504-2.184 0-.896.149-1.638.448-2.226.308-.598.733-1.046 1.274-1.344.541-.299 1.171-.448 1.89-.448Zm.014 1.484c-.401 0-.737.13-1.008.392-.261.261-.415.667-.462 1.218h2.926a1.95 1.95 0 0 0-.168-.826 1.25 1.25 0 0 0-.476-.574c-.215-.14-.485-.21-.812-.21Zm11.366 6.44c-.756 0-1.4-.136-1.932-.406-.532-.28-.938-.71-1.218-1.288-.28-.579-.42-1.321-.42-2.226 0-.934.158-1.694.476-2.282.317-.588.756-1.022 1.316-1.302.569-.28 1.222-.42 1.96-.42.522 0 .975.051 1.358.154a5.65 5.65 0 0 1 1.022.364l-.616 1.61c-.327-.131-.635-.238-.924-.322a2.91 2.91 0 0 0-.84-.126c-.364 0-.668.088-.91.266-.243.168-.425.424-.546.77-.112.336-.168.76-.168 1.274 0 .504.06.924.182 1.26.13.326.317.574.56.742.242.158.536.238.882.238.438 0 .826-.056 1.162-.168.336-.122.662-.285.98-.49v1.778c-.318.205-.654.35-1.008.434-.346.093-.784.14-1.316.14Zm9.319-8.61c0 .373-.014.732-.042 1.078a10.79 10.79 0 0 1-.056.728h.112a2.25 2.25 0 0 1 .588-.63 2.2 2.2 0 0 1 .742-.364c.28-.084.574-.126.882-.126.551 0 1.031.098 1.442.294.411.196.728.499.952.91.233.41.35.942.35 1.596v4.984h-2.086v-4.466c0-.551-.103-.962-.308-1.232-.196-.28-.504-.42-.924-.42-.42 0-.751.098-.994.294-.233.196-.401.48-.504.854-.103.373-.154.83-.154 1.372v3.598h-2.086v-10.64h2.086v2.17Z" fill="#000"/><path d="M17.02 31.043c-1.993 1.094-3.399 2.324-4.22 3.691-.807 1.368-1.21 3.086-1.21 5.157v1.074c0 .39-.078.664-.235.82-.156.143-.423.215-.8.215H6.492c-.364 0-.631-.072-.8-.215-.157-.156-.235-.43-.235-.82V39.89c0-1.94.215-3.581.645-4.922a9.193 9.193 0 0 1 2.128-3.594c1.003-1.042 2.364-2.064 4.082-3.066-1.953-1.12-3.49-2.468-4.609-4.043-1.107-1.589-1.66-3.34-1.66-5.254v-1.895c0-.377.065-.664.195-.86.586-.859 1.407-1.764 2.461-2.714.196-.156.371-.234.528-.234.156 0 .319.078.488.234.573.495 1.055.97 1.445 1.426.39.443.73.872 1.016 1.289.13.208.195.495.195.86v1.894c0 1.067.43 2.194 1.29 3.379.872 1.185 2.063 2.168 3.573 2.949 1.498-.768 2.572-1.693 3.223-2.774a6.76 6.76 0 0 0 .977-3.554v-1.895c0-.377.065-.664.195-.86.56-.846 1.354-1.75 2.383-2.714.195-.156.358-.234.488-.234.156 0 .319.078.488.234.547.495 1.01.97 1.387 1.426.39.443.723.872.996 1.289.13.208.195.495.195.86v1.894c0 2.148-.527 3.958-1.582 5.43-1.041 1.47-2.376 2.669-4.004 3.593 1.537.912 2.787 1.895 3.75 2.95.964 1.041 1.674 2.278 2.13 3.71.455 1.42.683 3.151.683 5.196v1.074c0 .39-.085.664-.254.82-.156.143-.43.215-.82.215h-4.16c-.391 0-.671-.072-.84-.215-.157-.156-.235-.43-.235-.82V39.89c0-1.394-.13-2.605-.39-3.633-.248-1.029-.749-1.953-1.504-2.774-.742-.833-1.85-1.647-3.32-2.441ZM23 5.553a4.5 4.5 0 1 1 9 0v.473a4.5 4.5 0 1 1-9 0v-.473Z" fill="#019F44"/><path d="m54.71 39.436-14.42-19.71h-.419v14.162c0 1.032.075 1.828.226 2.387.172.56.527.968 1.064 1.226.538.236 1.377.387 2.516.451v1.259a19.79 19.79 0 0 0-1.838-.065 88.485 88.485 0 0 0-4.807 0c-.71 0-1.29.021-1.742.065v-1.259c.947-.064 1.645-.215 2.097-.451.473-.258.785-.656.936-1.194.172-.537.258-1.269.258-2.193v-13.71c0-.796-.076-1.376-.226-1.742-.15-.365-.462-.623-.936-.774-.451-.15-1.16-.237-2.129-.258v-1.258c.495.021 1.14.043 1.936.064a95.93 95.93 0 0 0 2.58.033c.947 0 1.828-.011 2.646-.033.817-.021 1.537-.043 2.16-.064l9.775 13.484h.42v-8.162c0-1.053-.087-1.85-.259-2.387-.15-.559-.494-.967-1.032-1.226-.538-.258-1.365-.408-2.484-.451v-1.258a90.804 90.804 0 0 0 6.613.064 89.41 89.41 0 0 0 1.742-.064v1.258c-.925.064-1.624.215-2.097.451-.473.237-.785.624-.935 1.162-.15.537-.226 1.28-.226 2.226v17.967h-1.42Zm13.465-.225v-1.259c.731-.129 1.355-.354 1.87-.677.538-.323 1.033-.806 1.485-1.452.451-.666.914-1.526 1.387-2.58l7.548-17.097h1.161l9.033 18.903c.494 1.032 1.021 1.764 1.58 2.194.581.43 1.344.666 2.29.71v1.258a47.427 47.427 0 0 0-2.709-.065 187.94 187.94 0 0 0-3.71-.032c-1.548 0-2.87.01-3.967.032-1.097 0-1.936.021-2.517.065v-1.259c1.076-.021 1.871-.129 2.388-.322.537-.215.838-.538.903-.968.064-.43-.075-1-.42-1.71l-6.064-12.806.839-.323-4.42 10.13c-.58 1.29-.881 2.376-.903 3.258 0 .881.28 1.548.839 2 .58.451 1.473.698 2.677.741v1.259a83.29 83.29 0 0 0-2.161-.033 49.704 49.704 0 0 0-1.71-.032 35.698 35.698 0 0 0-1.548-.032c-.731 0-1.409.01-2.032.032-.624 0-1.237.021-1.84.065Zm5.87-7.065.55-1.258h9.87l.58 1.258h-11Zm32.193 7.065v-1.259c1.247-.021 2.182-.096 2.806-.225.624-.15 1.043-.43 1.258-.84.215-.43.323-1.074.323-1.935V17.727h-.71c-.968 0-1.817.236-2.548.71-.71.472-1.323 1.225-1.839 2.257-.516 1.033-.968 2.366-1.355 4h-1.322c.193-1.376.333-2.752.419-4.129.086-1.398.14-2.795.161-4.193.968.021 2.032.043 3.194.064 1.183.022 2.365.033 3.548.033h6.452c1.183 0 2.365-.011 3.548-.033a805.47 805.47 0 0 0 3.226-.064c0 1.42.043 2.817.129 4.193.108 1.377.247 2.753.419 4.13h-1.29c-.301-1.226-.634-2.28-1-3.162-.366-.882-.785-1.602-1.258-2.161-.452-.56-.968-.968-1.548-1.226-.581-.28-1.237-.42-1.968-.42h-.71v17.226c0 .86.108 1.506.323 1.936.215.409.634.688 1.258.839.645.129 1.591.204 2.838.225v1.259c-.774-.022-1.806-.044-3.096-.065a250.795 250.795 0 0 0-8.162 0c-1.29.022-2.322.043-3.096.065Zm64.189.225-9-18.903c-.495-1.032-1.032-1.763-1.613-2.194-.559-.43-1.312-.666-2.258-.71v-1.257c.71.021 1.602.043 2.677.064 1.076.022 2.312.033 3.71.033 1.527 0 2.839-.011 3.936-.033a155.38 155.38 0 0 0 2.548-.064v1.258c-1.032.021-1.817.14-2.355.355-.538.193-.839.505-.903.935-.043.43.097 1 .419 1.71l6.065 12.806-.871.323 4.419-10.13c.581-1.311.882-2.397.903-3.257.022-.882-.258-1.549-.838-2-.581-.473-1.463-.72-2.646-.742v-1.258c.818.021 1.527.043 2.129.064.624 0 1.194.011 1.71.033h1.549c.752 0 1.44-.011 2.064-.033.624-.021 1.226-.043 1.807-.064v1.258c-.71.107-1.334.333-1.871.677-.538.323-1.033.807-1.484 1.452-.43.645-.882 1.505-1.355 2.58l-7.581 17.097h-1.161Zm23.496-.225v-1.259c.968-.043 1.678-.129 2.129-.258.473-.129.785-.387.936-.774.15-.387.225-.968.225-1.742V20.404c0-.774-.075-1.344-.225-1.71-.151-.387-.463-.655-.936-.806-.451-.15-1.161-.237-2.129-.258v-1.258a590.884 590.884 0 0 0 11.194.097h2.838c.882-.022 1.699-.033 2.452-.033.753-.021 1.43-.043 2.032-.064 0 1.247.043 2.484.129 3.71.086 1.204.215 2.397.387 3.58h-1.29c-.301-1.398-.71-2.527-1.226-3.387-.494-.882-1.107-1.527-1.838-1.935-.71-.41-1.57-.613-2.581-.613h-3.258v17.935c0 .624.054 1.097.161 1.42.108.322.312.537.613.645.323.086.785.129 1.387.129h.645c1.162 0 2.205-.258 3.129-.775.925-.516 1.742-1.311 2.452-2.387.71-1.096 1.344-2.483 1.903-4.16h1.29c-.15 1.59-.268 3.107-.354 4.547-.065 1.42-.086 2.796-.065 4.13a96.918 96.918 0 0 0-3.806-.065 359.877 359.877 0 0 0-5.194-.032c-2.473 0-4.634.01-6.484.032-1.849 0-3.355.021-4.516.065Zm7.807-10.871v-1.226h5.935v1.226h-5.935Zm6.419 4.225c-.108-.967-.323-1.763-.645-2.387-.301-.623-.721-1.086-1.258-1.387-.516-.3-1.162-.451-1.936-.451v-1.226c1.032 0 1.86-.355 2.484-1.065.645-.731 1.065-1.785 1.258-3.161h1.226c-.086 1.269-.129 2.247-.129 2.935.021.689.032 1.323.032 1.904v1.322c.022.43.043.925.065 1.484.043.56.086 1.237.129 2.032h-1.226Z" fill="#000"/><path d="M135.22 39.21v-1.258c.968-.043 1.677-.129 2.129-.258.473-.129.785-.387.936-.774.15-.387.225-.968.225-1.742V20.404c0-.796-.075-1.376-.225-1.742-.151-.387-.463-.645-.936-.774-.452-.15-1.161-.237-2.129-.258v-1.258a187.936 187.936 0 0 0 6.194.097 168.752 168.752 0 0 0 5.935-.097v1.258c-.968.021-1.688.107-2.161.258-.452.129-.753.387-.903.774-.151.366-.226.946-.226 1.742v14.774c0 .774.075 1.355.226 1.742.15.366.462.624.935.774.473.13 1.183.215 2.129.258v1.259a36.294 36.294 0 0 0-2.452-.065 168.752 168.752 0 0 0-3.483-.032c-1.398 0-2.635.01-3.71.032-1.054 0-1.882.021-2.484.065ZM137 8.5a4.5 4.5 0 0 1 9 0v1a4.5 4.5 0 0 1-9 0v-1Z" fill="#019F44"/></symbol><symbol fill="none" viewBox="0 0 217 62" id="logo-green2" xmlns="http://www.w3.org/2000/svg"><path d="M11.832 58h-5.66v-9.994h5.66v1.38h-4.02v2.715h3.767v1.374H7.812v3.137h4.02V58Zm11.76 0h-2.017l-4.895-7.977h-.061c.018.268.034.553.048.854.018.3.032.61.04.93.014.319.026.642.035.97V58h-1.49v-9.994h2.003l4.887 7.923h.048c-.009-.233-.02-.5-.034-.8l-.041-.93a71.32 71.32 0 0 1-.02-.936v-5.257h1.497V58Zm7.918-5.428h3.732v5.018c-.524.173-1.066.307-1.627.403-.56.096-1.19.144-1.887.144-1.016 0-1.877-.2-2.584-.602a3.919 3.919 0 0 1-1.6-1.757c-.364-.77-.546-1.697-.546-2.782 0-1.044.203-1.948.608-2.714a4.232 4.232 0 0 1 1.77-1.784c.776-.424 1.714-.636 2.817-.636.543 0 1.067.055 1.573.164.51.105.977.251 1.401.438l-.574 1.353a6.47 6.47 0 0 0-1.135-.403 5.15 5.15 0 0 0-1.306-.164c-.715 0-1.333.155-1.852.465-.515.31-.912.747-1.19 1.312-.278.56-.417 1.224-.417 1.99 0 .742.112 1.394.335 1.955.224.56.572.998 1.046 1.312.479.31 1.096.465 1.853.465.378 0 .7-.02.964-.062.264-.04.508-.086.731-.136v-2.577H31.51v-1.402ZM38.895 58v-9.994h1.64V58h-1.64Zm13.879 0h-2.017l-4.894-7.977H45.8c.018.268.034.553.048.854.018.3.032.61.041.93.014.319.025.642.034.97V58h-1.49v-9.994h2.003l4.888 7.923h.047c-.009-.233-.02-.5-.034-.8l-.04-.93c-.01-.323-.017-.636-.021-.936v-5.257h1.497V58Zm9.545 0h-5.66v-9.994h5.66v1.38h-4.02v2.715h3.767v1.374H58.3v3.137h4.02V58Zm9.08 0h-5.66v-9.994h5.66v1.38h-4.02v2.715h3.767v1.374H67.38v3.137h4.02V58Zm6.23-9.994c.861 0 1.572.105 2.133.314.565.21.984.529 1.258.957.278.429.417.973.417 1.634 0 .492-.091.912-.274 1.258a2.595 2.595 0 0 1-.718.861 4.05 4.05 0 0 1-.95.547L82.332 58H80.48l-2.413-4.006H76.46V58h-1.64v-9.994h2.81Zm-.11 1.367H76.46v3.268h1.135c.76 0 1.312-.142 1.654-.424.347-.283.52-.7.52-1.251 0-.579-.185-.99-.554-1.23-.365-.242-.93-.363-1.695-.363ZM85.022 58v-9.994h1.64V58h-1.64ZM98.9 58h-2.017l-4.894-7.977h-.062c.019.268.035.553.048.854.019.3.032.61.041.93.014.319.025.642.034.97V58h-1.49v-9.994h2.003l4.888 7.923h.048c-.01-.233-.02-.5-.034-.8-.014-.3-.028-.61-.041-.93-.01-.323-.017-.636-.021-.936v-5.257H98.9V58Zm7.918-5.428h3.733v5.018a11.18 11.18 0 0 1-1.627.403 11.28 11.28 0 0 1-1.887.144c-1.016 0-1.878-.2-2.584-.602-.702-.405-1.235-.991-1.6-1.757-.364-.77-.546-1.697-.546-2.782 0-1.044.202-1.948.608-2.714a4.237 4.237 0 0 1 1.77-1.784c.775-.424 1.714-.636 2.817-.636.542 0 1.066.055 1.572.164.511.105.978.251 1.401.438l-.574 1.353a6.445 6.445 0 0 0-1.135-.403 5.145 5.145 0 0 0-1.305-.164c-.716 0-1.333.155-1.853.465-.515.31-.911.747-1.189 1.312-.278.56-.417 1.224-.417 1.99 0 .742.111 1.394.335 1.955.223.56.572.998 1.046 1.312.478.31 1.096.465 1.852.465.378 0 .7-.02.964-.062.264-.04.508-.086.732-.136v-2.577h-2.113v-1.402ZM120.727 58H119.1v-9.994h5.646v1.38h-4.019v3.118h3.76v1.374h-3.76V58Zm15.971-5.01c0 .77-.098 1.471-.294 2.105a4.515 4.515 0 0 1-.868 1.627c-.388.45-.873.8-1.456 1.046-.584.246-1.267.369-2.051.369-.798 0-1.49-.123-2.078-.37a3.824 3.824 0 0 1-1.456-1.052 4.56 4.56 0 0 1-.862-1.634 7.275 7.275 0 0 1-.287-2.105c0-1.03.169-1.928.506-2.694a3.896 3.896 0 0 1 1.552-1.79c.697-.43 1.577-.643 2.639-.643 1.039 0 1.902.212 2.59.635a3.9 3.9 0 0 1 1.545 1.791c.347.766.52 1.67.52 2.714Zm-7.629 0c0 .77.105 1.437.314 2.002.21.56.531.994.964 1.299.438.3.998.451 1.682.451.688 0 1.249-.15 1.682-.451.432-.305.751-.738.957-1.299.205-.565.307-1.233.307-2.003 0-1.171-.235-2.087-.704-2.748-.465-.665-1.208-.998-2.228-.998-.684 0-1.247.15-1.689.451-.437.301-.761.732-.971 1.292-.209.556-.314 1.224-.314 2.003Zm13.845-4.984c.861 0 1.572.105 2.133.314.565.21.984.529 1.258.957.278.429.417.973.417 1.634 0 .492-.092.912-.274 1.258a2.583 2.583 0 0 1-.718.861c-.296.228-.613.41-.95.547L147.617 58h-1.853l-2.413-4.006h-1.606V58h-1.641v-9.994h2.81Zm-.109 1.367h-1.06v3.268h1.135c.761 0 1.312-.142 1.654-.424.346-.283.52-.7.52-1.251 0-.579-.185-.99-.554-1.23-.365-.242-.93-.363-1.695-.363ZM156.829 58h-1.627v-9.994h5.647v1.38h-4.02v3.118h3.76v1.374h-3.76V58Zm14.946-9.994v6.467c0 .697-.148 1.321-.444 1.873-.292.551-.734.989-1.327 1.312-.592.32-1.337.479-2.235.479-1.28 0-2.256-.335-2.926-1.005-.665-.675-.998-1.57-.998-2.687v-6.44h1.641v6.297c0 .834.196 1.449.588 1.846.392.396.977.594 1.757.594.537 0 .975-.093 1.312-.28.342-.192.593-.47.752-.834.164-.37.246-.813.246-1.333v-6.29h1.634ZM179.057 58h-1.647v-8.6h-2.926v-1.394h7.492V49.4h-2.919V58Zm13.558-9.994v6.467c0 .697-.148 1.321-.444 1.873-.292.551-.734.989-1.326 1.312-.593.32-1.338.479-2.236.479-1.28 0-2.255-.335-2.925-1.005-.666-.675-.998-1.57-.998-2.687v-6.44h1.64v6.297c0 .834.196 1.449.588 1.846.392.396.978.594 1.757.594.538 0 .975-.093 1.312-.28.342-.192.593-.47.752-.834.164-.37.246-.813.246-1.333v-6.29h1.634Zm6.626 0c.862 0 1.573.105 2.133.314.565.21.985.529 1.258.957.278.429.417.973.417 1.634 0 .492-.091.912-.273 1.258a2.607 2.607 0 0 1-.718.861c-.296.228-.613.41-.95.547L203.945 58h-1.853l-2.413-4.006h-1.606V58h-1.641v-9.994h2.809Zm-.109 1.367h-1.059v3.268h1.134c.761 0 1.313-.142 1.655-.424.346-.283.519-.7.519-1.251 0-.579-.184-.99-.554-1.23-.364-.242-.929-.363-1.695-.363ZM212.293 58h-5.66v-9.994h5.66v1.38h-4.019v2.715h3.767v1.374h-3.767v3.137h4.019V58Z" fill="#000"/><path d="M17.02 31.043c-1.993 1.094-3.399 2.324-4.22 3.691-.807 1.368-1.21 3.086-1.21 5.157v1.074c0 .39-.078.664-.235.82-.156.143-.423.215-.8.215H6.492c-.364 0-.631-.072-.8-.215-.157-.156-.235-.43-.235-.82V39.89c0-1.94.215-3.581.645-4.922a9.193 9.193 0 0 1 2.128-3.594c1.003-1.042 2.364-2.064 4.082-3.066-1.953-1.12-3.49-2.468-4.609-4.043-1.107-1.589-1.66-3.34-1.66-5.254v-1.895c0-.377.065-.664.195-.86.586-.859 1.407-1.764 2.461-2.714.196-.156.371-.234.528-.234.156 0 .319.078.488.234.573.495 1.055.97 1.445 1.426.39.443.73.872 1.016 1.289.13.208.195.495.195.86v1.894c0 1.067.43 2.194 1.29 3.379.872 1.185 2.063 2.168 3.573 2.949 1.498-.768 2.572-1.693 3.223-2.774a6.76 6.76 0 0 0 .977-3.554v-1.895c0-.377.065-.664.195-.86.56-.846 1.354-1.75 2.383-2.714.195-.156.358-.234.488-.234.156 0 .319.078.488.234.547.495 1.01.97 1.387 1.426.39.443.723.872.996 1.289.13.208.195.495.195.86v1.894c0 2.148-.527 3.958-1.582 5.43-1.041 1.47-2.376 2.669-4.004 3.593 1.537.912 2.787 1.895 3.75 2.95.964 1.041 1.674 2.278 2.13 3.71.455 1.42.683 3.151.683 5.196v1.074c0 .39-.085.664-.254.82-.156.143-.43.215-.82.215h-4.16c-.391 0-.671-.072-.84-.215-.157-.156-.235-.43-.235-.82V39.89c0-1.394-.13-2.605-.39-3.633-.248-1.029-.749-1.953-1.504-2.774-.742-.833-1.85-1.647-3.32-2.441ZM23 5.5a4.5 4.5 0 1 1 9 0 4.5 4.5 0 1 1-9 0Z" fill="#019F44"/><path d="M41.72 27.92v10.52c.987.373 1.72.867 2.2 1.48l-.4 3.08h-7.84l-.4-3.08c.48-.613 1.213-1.107 2.2-1.48V19.96c-1.093-.4-1.853-.893-2.28-1.48l.4-3.08h8.24l7.96 15.52c.587 1.12 1.16 2.613 1.72 4.48l.28.96.44-.16c-.373-2.32-.56-4.267-.56-5.84V20c-.96-.373-1.693-.88-2.2-1.52l.4-3.08h7.84l.4 3.08c-.507.64-1.24 1.147-2.2 1.52v23h-6.28L43.6 27.36c-.587-1.12-1.16-2.627-1.72-4.52l-.28-.92-.44.16c.373 2.32.56 4.267.56 5.84ZM85.358 15.2l7.96 23.08c1.12.4 1.907.867 2.36 1.4l-.4 3.32h-9.36l-.4-3.32c.32-.427.96-.827 1.92-1.2l-1.08-3.36h-8l-1 3.24c.933.373 1.626.813 2.08 1.32l-.4 3.32h-9.12l-.4-3.32c.48-.613 1.373-1.12 2.68-1.52l7.68-22.96h5.48Zm-3.32 5.6c0 1.627-.334 3.52-1 5.68l-1.56 4.96h5.72l-1.52-4.88c-.614-1.867-.96-3.56-1.04-5.08l-.04-.68h-.56Zm42.526-5.36v5.72l-2.52.32c-.347-.267-.68-.827-1-1.68h-4.8v18.56c1.066.427 1.8.867 2.2 1.32l-.4 3.32h-9.36l-.4-3.32c.346-.453 1.08-.893 2.2-1.32V19.8h-4.8c-.32.853-.654 1.413-1 1.68l-2.52-.32v-5.72h22.4Zm20.367-.04.4 3.32c-.427.507-1.16.96-2.2 1.36v18.28c1.066.427 1.8.867 2.2 1.32l-.4 3.32h-9.36l-.4-3.32c.346-.453 1.08-.893 2.2-1.32V20.08c-1.094-.4-1.827-.853-2.2-1.36l.4-3.32h9.36Zm20.534 27.8-7.6-23.12c-1.147-.427-1.893-.88-2.24-1.36l.4-3.32h9.36l.4 3.32c-.373.507-1.053.933-2.04 1.28l3.4 11.84c.56 1.84.907 3.533 1.04 5.08l.04.68h.56c.027-1.627.36-3.52 1-5.68l3.56-11.88c-1.013-.347-1.72-.787-2.12-1.32l.4-3.32h9.12l.4 3.32c-.48.587-1.373 1.093-2.68 1.52l-7.52 22.96h-5.48Zm44.595-.2H191.5l-.4-3.32c.347-.453 1.08-.893 2.2-1.32V20.08c-1.093-.4-1.826-.853-2.2-1.36l.4-3.32h18.24v6.96l-2.96.36c-.613-.533-1.106-1.52-1.48-2.96h-6.24v6.88h5.56c.32-.8.654-1.36 1-1.68l2.52.28v7.12l-2.52.32c-.346-.267-.68-.827-1-1.68h-5.56v7.64h6.56c.347-1.387.84-2.373 1.48-2.96l2.96.36V43Z" fill="#000"/></symbol><symbol fill="none" viewBox="0 0 256 64" id="logo-icons" xmlns="http://www.w3.org/2000/svg"><g clip-path="url(#na)"><path d="M2 39.88c0-1.2.013-2.653.04-4.36.027-1.733.053-3.587.08-5.56l.16-6.04c.053-2.053.107-4 .16-5.84.08-1.867.147-3.507.2-4.92.053-1.44.107-2.533.16-3.28a56.17 56.17 0 0 1 2.92-.12c1.28-.027 2.867-.04 4.76-.04a637.093 637.093 0 0 1 6.84 10.32c2.4 3.627 4.84 7.507 7.32 11.64l-.88-22c.693 0 1.44.027 2.24.08.827.027 1.627.067 2.4.12 0 2.24-.013 4.64-.04 7.2l-.08 7.56a501.43 501.43 0 0 1-.28 12.4c-.027 1.467-.067 2.427-.12 2.88a121.557 121.557 0 0 1-5.12.12c-.96.027-1.747.04-2.36.04a279.345 279.345 0 0 0-7.04-10.88A851.41 851.41 0 0 0 5.6 17.84l1.04 22.28c-1.493 0-3.04-.08-4.64-.24Zm44.95-6.12h-2.16a70.738 70.738 0 0 1-2.24-.12 312.957 312.957 0 0 0-1.76 6.52l-4.8-.32c1.494-5.04 3.16-10.12 5-15.24 1.84-5.147 3.8-10.147 5.88-15 .987-.107 2.08-.2 3.28-.28 1.227-.08 2.48-.12 3.76-.12 1.627 3.947 3.36 8.507 5.2 13.68a663.89 663.89 0 0 1 5.68 16.72 59.416 59.416 0 0 1-4.4.6c-1.36.133-2.746.2-4.16.2-.56-2.24-1.186-4.6-1.88-7.08-2.373.293-4.84.44-7.4.44Zm1.56-19.88c-.56 1.52-1.266 3.627-2.12 6.32a396.364 396.364 0 0 0-2.76 9.48 42.89 42.89 0 0 0 3.28.28c1.147.053 2.374.08 3.68.08h1.44c.507-.027.974-.04 1.4-.04-.586-2.133-1.186-4.2-1.8-6.2a227.4 227.4 0 0 0-1.68-5.56 120.978 120.978 0 0 0-1.44-4.36Zm35.305 26.2c-.667 0-1.493-.013-2.48-.04-.96 0-1.947-.013-2.96-.04-.987-.027-1.853-.053-2.6-.08v-4.4c.027-1.76.04-3.64.04-5.64.027-2.027.04-4.04.04-6.04.027-2.027.053-3.92.08-5.68.027-1.787.053-3.307.08-4.56-2 .027-3.947.053-5.84.08h-5.2l.16-4c1.707 0 3.547.013 5.52.04 1.973 0 3.987.013 6.04.04 2.053 0 4.04.013 5.96.04 1.947 0 3.733.013 5.36.04 1.627 0 3 .013 4.12.04 1.147 0 1.92.013 2.32.04l.12 3.36c-1.467.053-3.147.107-5.04.16-1.893.027-3.88.053-5.96.08.027 1.2.053 2.64.08 4.32.027 1.68.04 3.507.04 5.48.027 1.947.04 3.92.04 5.92.027 2 .04 3.933.04 5.8.027 1.867.04 3.547.04 5.04Zm19.141-.04c.32-6.48.48-13.067.48-19.76 0-1.12-.013-2.347-.04-3.68 0-1.36-.013-2.64-.04-3.84 0-1.2-.013-2.16-.04-2.88.32-.053.854-.093 1.6-.12a73.51 73.51 0 0 1 2.52-.04c.72 0 1.427.013 2.12.04.72.027 1.334.067 1.84.12a315.687 315.687 0 0 0-.12 4.96c-.026 1.653-.053 3.227-.08 4.72v3.84c0 3.627.04 6.773.12 9.44.107 2.667.254 5.027.44 7.08-1.44.053-2.906.08-4.4.08-1.466.027-2.933.04-4.4.04Zm28.094.36c-1.68-4.133-3.453-8.8-5.32-14a777.32 777.32 0 0 1-5.56-16.4 45.453 45.453 0 0 1 4.48-.6 42.63 42.63 0 0 1 4.08-.2c.614 2.4 1.254 4.867 1.92 7.4.694 2.533 1.387 5 2.08 7.4.72 2.4 1.4 4.613 2.04 6.64.64 2.027 1.2 3.72 1.68 5.08.587-1.6 1.294-3.747 2.12-6.44.827-2.693 1.72-5.747 2.68-9.16.96-3.413 1.934-7 2.92-10.76l4.8.32a245.035 245.035 0 0 1-5 15.4c-1.84 5.147-3.8 10.12-5.88 14.92l-7.04.4Zm46.819-.2c-.933-.08-2.427-.147-4.48-.2-2.027-.08-4.467-.133-7.32-.16-2.827-.027-5.907-.04-9.24-.04-.053-.747-.12-1.88-.2-3.4-.053-1.547-.12-3.307-.2-5.28-.08-1.973-.16-4.027-.24-6.16-.08-2.133-.147-4.187-.2-6.16-.053-2-.107-3.773-.16-5.32a216.75 216.75 0 0 1-.04-3.48h4.04c1.547-.027 3.16-.053 4.84-.08l5-.08a345.59 345.59 0 0 1 4.6-.12c1.44-.053 2.653-.093 3.64-.12l.16 4.28-14.28-.48v4.8c0 1.6.013 3.173.04 4.72l13.44-.44-.16 4.4-13.24-.56c.027 1.893.053 3.693.08 5.4.027 1.707.067 3.253.12 4.64l13.96-.48-.16 4.32ZM10.062 57h-5.66v-9.994h5.66v1.38h-4.02v2.715h3.767v1.374H6.042v3.137h4.02V57Zm10.5 0h-2.017l-4.895-7.977h-.061c.018.268.034.553.048.854.018.3.032.61.04.93.014.319.026.642.035.97V57h-1.49v-9.994h2.003l4.887 7.923h.048c-.009-.233-.02-.5-.034-.8l-.041-.93c-.01-.323-.016-.636-.02-.936v-5.257h1.496V57Zm6.658-5.428h3.732v5.018c-.524.173-1.066.307-1.627.403-.56.096-1.19.144-1.886.144-1.017 0-1.878-.2-2.584-.602a3.919 3.919 0 0 1-1.6-1.757c-.365-.77-.547-1.697-.547-2.782 0-1.044.203-1.948.608-2.714a4.232 4.232 0 0 1 1.77-1.784c.776-.424 1.715-.636 2.817-.636.543 0 1.067.055 1.573.164.51.105.977.251 1.401.438l-.574 1.353a6.47 6.47 0 0 0-1.135-.403 5.15 5.15 0 0 0-1.306-.164c-.715 0-1.333.155-1.852.465-.515.31-.912.747-1.19 1.312-.278.56-.417 1.224-.417 1.99 0 .742.112 1.394.335 1.955.224.56.572.998 1.046 1.312.479.31 1.096.465 1.853.465.378 0 .7-.02.964-.062.264-.04.508-.086.731-.136v-2.577H27.22v-1.402ZM33.345 57v-9.994h1.64V57h-1.64Zm12.619 0h-2.017l-4.894-7.977h-.062c.018.268.034.553.048.854.018.3.032.61.041.93.014.319.025.642.034.97V57h-1.49v-9.994h2.003l4.888 7.923h.047c-.009-.233-.02-.5-.034-.8l-.04-.93c-.01-.323-.017-.636-.021-.936v-5.257h1.497V57Zm8.285 0h-5.66v-9.994h5.66v1.38h-4.02v2.715h3.767v1.374H50.23v3.137h4.02V57Zm7.82 0h-5.66v-9.994h5.66v1.38h-4.02v2.715h3.767v1.374H58.05v3.137h4.02V57Zm4.97-9.994c.861 0 1.572.105 2.133.314.565.21.984.529 1.258.957.278.429.417.973.417 1.634 0 .492-.091.912-.274 1.258a2.594 2.594 0 0 1-.717.861 4.05 4.05 0 0 1-.95.547L71.741 57H69.89l-2.413-4.006H65.87V57h-1.64v-9.994h2.81Zm-.11 1.367H65.87v3.268h1.135c.761 0 1.312-.142 1.654-.424.346-.283.52-.7.52-1.251 0-.579-.185-.99-.554-1.23-.365-.242-.93-.363-1.695-.363ZM73.172 57v-9.994h1.64V57h-1.64Zm12.619 0h-2.017l-4.894-7.977h-.062c.019.268.035.553.048.854.019.3.032.61.041.93.014.319.025.642.034.97V57h-1.49v-9.994h2.003l4.888 7.923h.048c-.01-.233-.02-.5-.034-.8-.014-.3-.028-.61-.041-.93-.01-.323-.016-.636-.021-.936v-5.257h1.497V57Zm6.658-5.428h3.733v5.018c-.524.173-1.067.307-1.627.403-.56.096-1.19.144-1.887.144-1.016 0-1.878-.2-2.584-.602a3.919 3.919 0 0 1-1.6-1.757c-.364-.77-.547-1.697-.547-2.782 0-1.044.203-1.948.609-2.714a4.232 4.232 0 0 1 1.77-1.784c.775-.424 1.714-.636 2.817-.636.542 0 1.066.055 1.572.164.51.105.978.251 1.402.438l-.575 1.353a6.468 6.468 0 0 0-1.135-.403 5.15 5.15 0 0 0-1.305-.164c-.716 0-1.333.155-1.853.465-.515.31-.911.747-1.19 1.312-.277.56-.416 1.224-.416 1.99 0 .742.111 1.394.335 1.955.223.56.572.998 1.046 1.312.478.31 1.096.465 1.852.465.379 0 .7-.02.964-.062.264-.04.508-.086.732-.136v-2.577h-2.113v-1.402ZM103.837 57h-1.627v-9.994h5.646v1.38h-4.019v3.118h3.76v1.374h-3.76V57Zm14.711-5.01c0 .77-.098 1.471-.294 2.105a4.515 4.515 0 0 1-.868 1.627c-.388.45-.873.8-1.456 1.046-.584.246-1.267.369-2.051.369-.798 0-1.49-.123-2.078-.37a3.824 3.824 0 0 1-1.456-1.052 4.56 4.56 0 0 1-.862-1.634 7.275 7.275 0 0 1-.287-2.105c0-1.03.169-1.928.506-2.694a3.896 3.896 0 0 1 1.552-1.79c.697-.43 1.577-.643 2.639-.643 1.039 0 1.902.212 2.59.635a3.9 3.9 0 0 1 1.545 1.791c.347.766.52 1.67.52 2.714Zm-7.629 0c0 .77.105 1.437.314 2.002.21.56.531.994.964 1.299.438.3.998.451 1.682.451.688 0 1.249-.15 1.682-.451.432-.305.751-.738.957-1.299.205-.565.307-1.233.307-2.003 0-1.171-.235-2.087-.704-2.748-.465-.665-1.208-.998-2.228-.998-.684 0-1.247.15-1.689.451-.437.301-.761.732-.971 1.292-.209.556-.314 1.224-.314 2.003Zm12.585-4.984c.861 0 1.572.105 2.133.314.565.21.984.529 1.258.957.278.429.417.973.417 1.634 0 .492-.092.912-.274 1.258a2.583 2.583 0 0 1-.718.861c-.296.228-.613.41-.95.547L128.207 57h-1.853l-2.413-4.006h-1.606V57h-1.641v-9.994h2.81Zm-.109 1.367h-1.06v3.268h1.135c.761 0 1.312-.142 1.654-.424.346-.283.52-.7.52-1.251 0-.579-.185-.99-.554-1.23-.365-.242-.93-.363-1.695-.363ZM134.899 57h-1.627v-9.994h5.647v1.38h-4.02v3.118h3.76v1.374h-3.76V57Zm13.686-9.994v6.467c0 .697-.148 1.321-.444 1.873-.292.551-.734.989-1.327 1.312-.592.32-1.337.479-2.235.479-1.28 0-2.256-.335-2.926-1.005-.665-.675-.998-1.57-.998-2.687v-6.44h1.641v6.297c0 .834.196 1.449.588 1.846.392.396.977.594 1.757.594.537 0 .975-.093 1.312-.28.342-.192.593-.47.752-.834.164-.37.246-.813.246-1.333v-6.29h1.634ZM154.607 57h-1.647v-8.6h-2.926v-1.394h7.492V48.4h-2.919V57Zm12.298-9.994v6.467c0 .697-.148 1.321-.444 1.873-.292.551-.734.989-1.326 1.312-.593.32-1.338.479-2.236.479-1.28 0-2.255-.335-2.925-1.005-.666-.675-.998-1.57-.998-2.687v-6.44h1.64v6.297c0 .834.196 1.449.588 1.846.392.396.978.594 1.757.594.538 0 .975-.093 1.312-.28.342-.192.593-.47.752-.834.164-.37.246-.813.246-1.333v-6.29h1.634Zm5.366 0c.862 0 1.573.105 2.133.314.565.21.985.529 1.258.957.278.429.417.973.417 1.634 0 .492-.091.912-.273 1.258a2.607 2.607 0 0 1-.718.861c-.296.228-.613.41-.95.547L176.975 57h-1.853l-2.413-4.006h-1.606V57h-1.641v-9.994h2.809Zm-.109 1.367h-1.059v3.268h1.134c.761 0 1.313-.142 1.655-.424.346-.283.519-.7.519-1.251 0-.579-.184-.99-.554-1.23-.364-.242-.929-.363-1.695-.363ZM184.063 57h-5.66v-9.994h5.66v1.38h-4.019v2.715h3.767v1.374h-3.767v3.137h4.019V57ZM199 31.833c0-13.8 11.187-24.986 24.987-24.986 13.799 0 24.986 11.187 24.986 24.986v3.18c0 13.8-11.187 24.987-24.986 24.987C210.187 60 199 48.813 199 35.014v-3.18Z" fill="#E7503D"/><path d="M215.122 47.453c-1.146 0-2-.467-2.56-1.4-.56-.934-.84-1.987-.84-3.16 0-.694.08-1.374.24-2.04.187-.694.454-1.32.8-1.88.294.053.56.093.8.12.267.026.52.04.76.04 1.734 0 3.227-.507 4.48-1.52 1.28-1.014 2.294-2.334 3.04-3.96a55.204 55.204 0 0 0-1.48-3.88c-.533-1.28-1.106-2.334-1.72-3.16-.586-.827-1.24-1.24-1.96-1.24-.426 0-.84.186-1.24.56-.4.346-.64.866-.72 1.56l-.52-.08c.027-3.2.467-5.534 1.32-7 .88-1.494 1.974-2.24 3.28-2.24 1.04 0 1.974.4 2.8 1.2.827.773 1.56 1.773 2.2 3a31.44 31.44 0 0 1 1.76 3.72c.507 1.28.96 2.413 1.36 3.4.56-2.56 1.307-4.667 2.24-6.32.96-1.68 2-2.934 3.12-3.76 1.12-.827 2.174-1.24 3.16-1.24 1.04 0 1.8.386 2.28 1.16.48.746.72 1.68.72 2.8 0 .826-.133 1.72-.4 2.68-.24.933-.6 1.826-1.08 2.68a5.104 5.104 0 0 0-2.24-.52c-1.253 0-2.44.48-3.56 1.44-1.12.933-2.093 2.306-2.92 4.12.88 1.92 1.627 3.44 2.24 4.56.614 1.12 1.12 1.946 1.52 2.48.4.506.747.84 1.04 1 .294.16.56.24.8.24.987 0 1.56-.654 1.72-1.96l.48.08c0 2.693-.44 4.786-1.32 6.28-.88 1.493-2.133 2.24-3.76 2.24-1.04 0-2-.347-2.88-1.04-.853-.72-1.68-1.854-2.48-3.4-.8-1.547-1.666-3.574-2.6-6.08-.373 2.24-1 4.146-1.88 5.72-.853 1.573-1.813 2.773-2.88 3.6-1.066.8-2.106 1.2-3.12 1.2Z" fill="#fff"/><path d="M238 4a5 5 0 0 1 10 0 5 5 0 0 1-10 0ZM190.293 5.037h1.561v54.154h-1.561z" fill="#E7503D"/></g><defs><clipPath id="na"><path fill="#fff" d="M0 0h256v64H0z"/></clipPath></defs></symbol><symbol fill="none" viewBox="0 0 256 64" id="logo-white" xmlns="http://www.w3.org/2000/svg"><g clip-path="url(#oa)"><path d="M2 39.88c0-1.2.013-2.653.04-4.36.027-1.733.053-3.587.08-5.56l.16-6.04c.053-2.053.107-4 .16-5.84.08-1.867.147-3.507.2-4.92.053-1.44.107-2.533.16-3.28a56.17 56.17 0 0 1 2.92-.12c1.28-.027 2.867-.04 4.76-.04a637.093 637.093 0 0 1 6.84 10.32c2.4 3.627 4.84 7.507 7.32 11.64l-.88-22c.693 0 1.44.027 2.24.08.827.027 1.627.067 2.4.12 0 2.24-.013 4.64-.04 7.2l-.08 7.56a501.43 501.43 0 0 1-.28 12.4c-.027 1.467-.067 2.427-.12 2.88a121.557 121.557 0 0 1-5.12.12c-.96.027-1.747.04-2.36.04a279.345 279.345 0 0 0-7.04-10.88A851.41 851.41 0 0 0 5.6 17.84l1.04 22.28c-1.493 0-3.04-.08-4.64-.24Zm44.95-6.12h-2.16a70.738 70.738 0 0 1-2.24-.12 312.957 312.957 0 0 0-1.76 6.52l-4.8-.32c1.494-5.04 3.16-10.12 5-15.24 1.84-5.147 3.8-10.147 5.88-15 .987-.107 2.08-.2 3.28-.28 1.227-.08 2.48-.12 3.76-.12 1.627 3.947 3.36 8.507 5.2 13.68a663.89 663.89 0 0 1 5.68 16.72 59.416 59.416 0 0 1-4.4.6c-1.36.133-2.746.2-4.16.2-.56-2.24-1.186-4.6-1.88-7.08-2.373.293-4.84.44-7.4.44Zm1.56-19.88c-.56 1.52-1.266 3.627-2.12 6.32a396.364 396.364 0 0 0-2.76 9.48 42.89 42.89 0 0 0 3.28.28c1.147.053 2.374.08 3.68.08h1.44c.507-.027.974-.04 1.4-.04-.586-2.133-1.186-4.2-1.8-6.2a227.4 227.4 0 0 0-1.68-5.56 120.978 120.978 0 0 0-1.44-4.36Zm35.305 26.2c-.667 0-1.493-.013-2.48-.04-.96 0-1.947-.013-2.96-.04-.987-.027-1.853-.053-2.6-.08v-4.4c.027-1.76.04-3.64.04-5.64.027-2.027.04-4.04.04-6.04.027-2.027.053-3.92.08-5.68.027-1.787.053-3.307.08-4.56-2 .027-3.947.053-5.84.08h-5.2l.16-4c1.707 0 3.547.013 5.52.04 1.973 0 3.987.013 6.04.04 2.053 0 4.04.013 5.96.04 1.947 0 3.733.013 5.36.04 1.627 0 3 .013 4.12.04 1.147 0 1.92.013 2.32.04l.12 3.36c-1.467.053-3.147.107-5.04.16-1.893.027-3.88.053-5.96.08.027 1.2.053 2.64.08 4.32.027 1.68.04 3.507.04 5.48.027 1.947.04 3.92.04 5.92.027 2 .04 3.933.04 5.8.027 1.867.04 3.547.04 5.04Zm19.141-.04c.32-6.48.48-13.067.48-19.76 0-1.12-.013-2.347-.04-3.68 0-1.36-.013-2.64-.04-3.84 0-1.2-.013-2.16-.04-2.88.32-.053.854-.093 1.6-.12a73.51 73.51 0 0 1 2.52-.04c.72 0 1.427.013 2.12.04.72.027 1.334.067 1.84.12a315.687 315.687 0 0 0-.12 4.96c-.026 1.653-.053 3.227-.08 4.72v3.84c0 3.627.04 6.773.12 9.44.107 2.667.254 5.027.44 7.08-1.44.053-2.906.08-4.4.08-1.466.027-2.933.04-4.4.04Zm28.094.36c-1.68-4.133-3.453-8.8-5.32-14a777.32 777.32 0 0 1-5.56-16.4 45.453 45.453 0 0 1 4.48-.6 42.63 42.63 0 0 1 4.08-.2c.614 2.4 1.254 4.867 1.92 7.4.694 2.533 1.387 5 2.08 7.4.72 2.4 1.4 4.613 2.04 6.64.64 2.027 1.2 3.72 1.68 5.08.587-1.6 1.294-3.747 2.12-6.44.827-2.693 1.72-5.747 2.68-9.16.96-3.413 1.934-7 2.92-10.76l4.8.32a245.035 245.035 0 0 1-5 15.4c-1.84 5.147-3.8 10.12-5.88 14.92l-7.04.4Zm46.819-.2c-.933-.08-2.427-.147-4.48-.2-2.027-.08-4.467-.133-7.32-.16-2.827-.027-5.907-.04-9.24-.04-.053-.747-.12-1.88-.2-3.4-.053-1.547-.12-3.307-.2-5.28-.08-1.973-.16-4.027-.24-6.16-.08-2.133-.147-4.187-.2-6.16-.053-2-.107-3.773-.16-5.32a216.75 216.75 0 0 1-.04-3.48h4.04c1.547-.027 3.16-.053 4.84-.08l5-.08a345.59 345.59 0 0 1 4.6-.12c1.44-.053 2.653-.093 3.64-.12l.16 4.28-14.28-.48v4.8c0 1.6.013 3.173.04 4.72l13.44-.44-.16 4.4-13.24-.56c.027 1.893.053 3.693.08 5.4.027 1.707.067 3.253.12 4.64l13.96-.48-.16 4.32ZM7.062 57h-5.66v-9.994h5.66v1.38h-4.02v2.715h3.767v1.374H3.042v3.137h4.02V57Zm10.5 0h-2.017l-4.895-7.977h-.061c.018.268.034.553.048.854.018.3.032.61.04.93.014.319.026.642.035.97V57h-1.49v-9.994h2.003l4.887 7.923h.048c-.009-.233-.02-.5-.034-.8l-.041-.93c-.01-.323-.016-.636-.02-.936v-5.257h1.496V57Zm6.658-5.428h3.732v5.018c-.524.173-1.066.307-1.627.403-.56.096-1.19.144-1.886.144-1.017 0-1.878-.2-2.584-.602a3.919 3.919 0 0 1-1.6-1.757c-.365-.77-.547-1.697-.547-2.782 0-1.044.203-1.948.608-2.714a4.232 4.232 0 0 1 1.77-1.784c.776-.424 1.715-.636 2.817-.636.543 0 1.067.055 1.573.164.51.105.977.251 1.401.438l-.574 1.353a6.47 6.47 0 0 0-1.135-.403 5.15 5.15 0 0 0-1.306-.164c-.715 0-1.333.155-1.852.465-.515.31-.912.747-1.19 1.312-.278.56-.417 1.224-.417 1.99 0 .742.112 1.394.335 1.955.224.56.572.998 1.046 1.312.479.31 1.096.465 1.853.465.378 0 .7-.02.964-.062.264-.04.508-.086.731-.136v-2.577H24.22v-1.402ZM30.345 57v-9.994h1.64V57h-1.64Zm12.619 0h-2.017l-4.894-7.977h-.062c.018.268.034.553.048.854.018.3.032.61.041.93.014.319.025.642.034.97V57h-1.49v-9.994h2.003l4.888 7.923h.047c-.009-.233-.02-.5-.034-.8l-.04-.93c-.01-.323-.017-.636-.021-.936v-5.257h1.497V57Zm8.285 0h-5.66v-9.994h5.66v1.38h-4.02v2.715h3.767v1.374H47.23v3.137h4.02V57Zm7.82 0h-5.66v-9.994h5.66v1.38h-4.02v2.715h3.767v1.374H55.05v3.137h4.02V57Zm4.97-9.994c.861 0 1.572.105 2.133.314.565.21.984.529 1.258.957.278.429.417.973.417 1.634 0 .492-.091.912-.274 1.258a2.594 2.594 0 0 1-.717.861 4.05 4.05 0 0 1-.95.547L68.741 57H66.89l-2.413-4.006H62.87V57h-1.64v-9.994h2.81Zm-.11 1.367H62.87v3.268h1.135c.761 0 1.312-.142 1.654-.424.346-.283.52-.7.52-1.251 0-.579-.185-.99-.554-1.23-.365-.242-.93-.363-1.695-.363ZM70.172 57v-9.994h1.64V57h-1.64Zm12.619 0h-2.017l-4.894-7.977h-.062c.019.268.035.553.048.854.019.3.032.61.041.93.014.319.025.642.034.97V57h-1.49v-9.994h2.003l4.888 7.923h.048c-.01-.233-.02-.5-.034-.8-.014-.3-.028-.61-.041-.93-.01-.323-.016-.636-.021-.936v-5.257h1.497V57Zm6.658-5.428h3.733v5.018c-.524.173-1.067.307-1.627.403-.56.096-1.19.144-1.887.144-1.016 0-1.878-.2-2.584-.602a3.919 3.919 0 0 1-1.6-1.757c-.364-.77-.547-1.697-.547-2.782 0-1.044.203-1.948.609-2.714a4.232 4.232 0 0 1 1.77-1.784c.775-.424 1.714-.636 2.817-.636.542 0 1.066.055 1.572.164.51.105.978.251 1.402.438l-.575 1.353a6.468 6.468 0 0 0-1.135-.403 5.15 5.15 0 0 0-1.305-.164c-.716 0-1.333.155-1.853.465-.515.31-.911.747-1.19 1.312-.277.56-.416 1.224-.416 1.99 0 .742.111 1.394.335 1.955.223.56.572.998 1.046 1.312.478.31 1.096.465 1.852.465.379 0 .7-.02.964-.062.264-.04.508-.086.732-.136v-2.577h-2.113v-1.402ZM100.837 57H99.21v-9.994h5.646v1.38h-4.019v3.118h3.76v1.374h-3.76V57Zm14.711-5.01c0 .77-.098 1.471-.294 2.105a4.515 4.515 0 0 1-.868 1.627c-.388.45-.873.8-1.456 1.046-.584.246-1.267.369-2.051.369-.798 0-1.49-.123-2.078-.37a3.824 3.824 0 0 1-1.456-1.052 4.56 4.56 0 0 1-.862-1.634 7.275 7.275 0 0 1-.287-2.105c0-1.03.169-1.928.506-2.694a3.896 3.896 0 0 1 1.552-1.79c.697-.43 1.577-.643 2.639-.643 1.039 0 1.902.212 2.59.635a3.9 3.9 0 0 1 1.545 1.791c.347.766.52 1.67.52 2.714Zm-7.629 0c0 .77.105 1.437.314 2.002.21.56.531.994.964 1.299.438.3.998.451 1.682.451.688 0 1.249-.15 1.682-.451.432-.305.751-.738.957-1.299.205-.565.307-1.233.307-2.003 0-1.171-.235-2.087-.704-2.748-.465-.665-1.208-.998-2.228-.998-.684 0-1.247.15-1.689.451-.437.301-.761.732-.971 1.292-.209.556-.314 1.224-.314 2.003Zm12.585-4.984c.861 0 1.572.105 2.133.314.565.21.984.529 1.258.957.278.429.417.973.417 1.634 0 .492-.092.912-.274 1.258a2.583 2.583 0 0 1-.718.861c-.296.228-.613.41-.95.547L125.207 57h-1.853l-2.413-4.006h-1.606V57h-1.641v-9.994h2.81Zm-.109 1.367h-1.06v3.268h1.135c.761 0 1.312-.142 1.654-.424.346-.283.52-.7.52-1.251 0-.579-.185-.99-.554-1.23-.365-.242-.93-.363-1.695-.363ZM131.899 57h-1.627v-9.994h5.647v1.38h-4.02v3.118h3.76v1.374h-3.76V57Zm13.686-9.994v6.467c0 .697-.148 1.321-.444 1.873-.292.551-.734.989-1.327 1.312-.592.32-1.337.479-2.235.479-1.28 0-2.256-.335-2.926-1.005-.665-.675-.998-1.57-.998-2.687v-6.44h1.641v6.297c0 .834.196 1.449.588 1.846.392.396.977.594 1.757.594.537 0 .975-.093 1.312-.28.342-.192.593-.47.752-.834.164-.37.246-.813.246-1.333v-6.29h1.634ZM151.607 57h-1.647v-8.6h-2.926v-1.394h7.492V48.4h-2.919V57Zm12.298-9.994v6.467c0 .697-.148 1.321-.444 1.873-.292.551-.734.989-1.326 1.312-.593.32-1.338.479-2.236.479-1.28 0-2.255-.335-2.925-1.005-.666-.675-.998-1.57-.998-2.687v-6.44h1.64v6.297c0 .834.196 1.449.588 1.846.392.396.978.594 1.757.594.538 0 .975-.093 1.312-.28.342-.192.593-.47.752-.834.164-.37.246-.813.246-1.333v-6.29h1.634Zm5.366 0c.862 0 1.573.105 2.133.314.565.21.985.529 1.258.957.278.429.417.973.417 1.634 0 .492-.091.912-.273 1.258a2.607 2.607 0 0 1-.718.861c-.296.228-.613.41-.95.547L173.975 57h-1.853l-2.413-4.006h-1.606V57h-1.641v-9.994h2.809Zm-.109 1.367h-1.059v3.268h1.134c.761 0 1.313-.142 1.655-.424.346-.283.519-.7.519-1.251 0-.579-.184-.99-.554-1.23-.364-.242-.929-.363-1.695-.363ZM181.063 57h-5.66v-9.994h5.66v1.38h-4.019v2.715h3.767v1.374h-3.767v3.137h4.019V57Z" fill="#F9FAFB"/><path d="M199 31.833c0-13.8 11.187-24.986 24.987-24.986 13.799 0 24.986 11.187 24.986 24.986v3.18c0 13.8-11.187 24.987-24.986 24.987C210.187 60 199 48.813 199 35.014v-3.18Z" fill="#E7503D"/><path d="M215.122 47.453c-1.146 0-2-.467-2.56-1.4-.56-.934-.84-1.987-.84-3.16 0-.694.08-1.374.24-2.04.187-.694.454-1.32.8-1.88.294.053.56.093.8.12.267.026.52.04.76.04 1.734 0 3.227-.507 4.48-1.52 1.28-1.014 2.294-2.334 3.04-3.96a55.204 55.204 0 0 0-1.48-3.88c-.533-1.28-1.106-2.334-1.72-3.16-.586-.827-1.24-1.24-1.96-1.24-.426 0-.84.186-1.24.56-.4.346-.64.866-.72 1.56l-.52-.08c.027-3.2.467-5.534 1.32-7 .88-1.494 1.974-2.24 3.28-2.24 1.04 0 1.974.4 2.8 1.2.827.773 1.56 1.773 2.2 3a31.44 31.44 0 0 1 1.76 3.72c.507 1.28.96 2.413 1.36 3.4.56-2.56 1.307-4.667 2.24-6.32.96-1.68 2-2.934 3.12-3.76 1.12-.827 2.174-1.24 3.16-1.24 1.04 0 1.8.386 2.28 1.16.48.746.72 1.68.72 2.8 0 .826-.133 1.72-.4 2.68-.24.933-.6 1.826-1.08 2.68a5.104 5.104 0 0 0-2.24-.52c-1.253 0-2.44.48-3.56 1.44-1.12.933-2.093 2.306-2.92 4.12.88 1.92 1.627 3.44 2.24 4.56.614 1.12 1.12 1.946 1.52 2.48.4.506.747.84 1.04 1 .294.16.56.24.8.24.987 0 1.56-.654 1.72-1.96l.48.08c0 2.693-.44 4.786-1.32 6.28-.88 1.493-2.133 2.24-3.76 2.24-1.04 0-2-.347-2.88-1.04-.853-.72-1.68-1.854-2.48-3.4-.8-1.547-1.666-3.574-2.6-6.08-.373 2.24-1 4.146-1.88 5.72-.853 1.573-1.813 2.773-2.88 3.6-1.066.8-2.106 1.2-3.12 1.2Z" fill="#fff"/><path d="M238 4a5 5 0 0 1 10 0 5 5 0 0 1-10 0ZM190.293 5.037h1.561v54.154h-1.561z" fill="#E7503D"/></g><defs><clipPath id="oa"><path fill="#fff" d="M0 0h256v64H0z"/></clipPath></defs></symbol><symbol fill="none" viewBox="0 0 80 80" id="success-page-icon" xmlns="http://www.w3.org/2000/svg"><g clip-path="url(#qa)"><path d="M40 79.5c21.815 0 39.5-17.685 39.5-39.5S61.815.5 40 .5.5 18.185.5 40 18.185 79.5 40 79.5Z" stroke="#019F44"/><path d="M40 72c17.673 0 32-14.327 32-32C72 22.327 57.673 8 40 8 22.327 8 8 22.327 8 40c0 17.673 14.327 32 32 32Z" fill="#019F44"/><mask id="qb" style="mask-type:luminance" maskUnits="userSpaceOnUse" x="20" y="20" width="41" height="40"><path d="M60.8 20.8h-40v38.4h40V20.8Z" fill="#fff"/></mask><g mask="url(#qb)" fill="#fff" stroke="#fff"><path d="M41.968 48.8c0 .285-.118.563-.334.77-.218.21-.517.33-.833.33-.315 0-.614-.12-.832-.33a1.068 1.068 0 0 1-.334-.77c0-.285.117-.563.334-.77.218-.21.517-.33.832-.33.316 0 .615.12.833.33.216.207.334.485.334.77Zm-.629-13.688a.676.676 0 0 1 .212.488v7.2a.676.676 0 0 1-.212.488.777.777 0 0 1-.538.212.777.777 0 0 1-.537-.212.676.676 0 0 1-.213-.488v-7.2c0-.179.074-.355.213-.488a.777.777 0 0 1 .537-.212c.206 0 .399.078.538.212Z"/><path d="M42.672 26.934v-.001a2.14 2.14 0 0 0-.797-.762 2.224 2.224 0 0 0-2.148 0 2.138 2.138 0 0 0-.797.762l-.001.001L23.986 51.74l-.001.002a2.054 2.054 0 0 0 .002 2.114c.192.32.467.582.795.765.327.182.698.278 1.074.279h29.89a2.224 2.224 0 0 0 1.073-.28c.327-.181.602-.444.794-.764a2.055 2.055 0 0 0 .004-2.112l-.002-.002-14.943-24.808Zm-5.05-.686c1.41-2.34 4.946-2.34 6.357 0l14.945 24.807c1.386 2.303-.324 5.245-3.18 5.245H25.857c-2.857 0-4.566-2.942-3.18-5.245l14.945-24.807Z"/></g></g><defs><clipPath id="qa"><path fill="#fff" d="M0 0h80v80H0z"/></clipPath></defs></symbol><symbol viewBox="0 0 24 24" fill="none" id="tertiary-icon" xmlns="http://www.w3.org/2000/svg"><path fill-rule="evenodd" clip-rule="evenodd" d="M12.293 4.293a1 1 0 0 1 1.414 0l7 7a1 1 0 0 1 0 1.414l-7 7a1 1 0 0 1-1.414-1.414L17.586 13H4a1 1 0 1 1 0-2h13.586l-5.293-5.293a1 1 0 0 1 0-1.414Z" fill="#0AA7CA"/></symbol><symbol fill="none" viewBox="0 0 12 12" id="white-plus" xmlns="http://www.w3.org/2000/svg"><path fill-rule="evenodd" d="M5.333 5.333v-4a.667.667 0 0 1 1.334 0v4h4a.667.667 0 1 1 0 1.334h-4v4a.667.667 0 0 1-1.334 0v-4h-4a.667.667 0 0 1 0-1.334h4Z" fill="#fff"/></symbol></svg>