<?xml version="1.0" encoding="utf-8"?><svg xmlns="http://www.w3.org/2000/svg" xmlns:xlink="http://www.w3.org/1999/xlink"><symbol fill="none" viewBox="0 0 15 18" id="button-icon" xmlns="http://www.w3.org/2000/svg"><path d="M14.75 11.6 8.5 17.85H6.75L.5 11.6l1.75-1.775 4.125 4.1V0h2.5v13.925L13 9.8l1.75 1.8Z" fill="#fff"/></symbol><symbol fill="none" viewBox="0 0 49 48" id="hero-card-icon-wrapper1" xmlns="http://www.w3.org/2000/svg"><rect x=".324" width="48" height="48" rx="8" fill="#E5F0FF"/><path d="m27.846 25.754 8.725-3.173a2.499 2.499 0 0 0 .023-4.69L12.338 8.795a2.5 2.5 0 0 0-3.218 3.219l9.096 24.256a2.478 2.478 0 0 0 2.34 1.622h.013a2.478 2.478 0 0 0 2.337-1.646l3.172-8.724 9.863 9.862a1.25 1.25 0 1 0 1.767-1.768l-9.862-9.862Z" fill="url(#ba)"/><defs><linearGradient id="ba" x1="7.326" y1="7.393" x2="45.447" y2="15.821" gradientUnits="userSpaceOnUse"><stop stop-color="#176FEB"/><stop offset="1" stop-color="#FF80FF"/></linearGradient></defs></symbol><symbol fill="none" viewBox="0 0 49 48" id="hero-card-icon-wrapper2" xmlns="http://www.w3.org/2000/svg"><rect x=".325" y="-.003" width="48" height="48" rx="8" fill="#E5F0FF"/><path d="M36.959 26.497a2.477 2.477 0 0 1-1.636 2.346l-8.15 3.003-3.002 8.15a2.501 2.501 0 0 1-4.692 0l-3.003-8.15-8.15-3.003a2.5 2.5 0 0 1 0-4.692l8.15-3.002 3.003-8.15a2.5 2.5 0 0 1 4.692 0l3.002 8.15 8.15 3.002a2.477 2.477 0 0 1 1.636 2.346Zm-8.884-15h2.5v2.5a1.25 1.25 0 0 0 2.5 0v-2.5h2.5a1.25 1.25 0 0 0 0-2.5h-2.5v-2.5a1.25 1.25 0 0 0-2.5 0v2.5h-2.5a1.25 1.25 0 0 0 0 2.5Zm13.75 5h-1.25v-1.25a1.25 1.25 0 0 0-2.5 0v1.25h-1.25a1.25 1.25 0 0 0 0 2.5h1.25v1.25a1.25 1.25 0 0 0 2.5 0v-1.25h1.25a1.25 1.25 0 0 0 0-2.5Z" fill="url(#ca)"/><defs><linearGradient id="ca" x1="4.658" y1="3.701" x2="52.067" y2="14.183" gradientUnits="userSpaceOnUse"><stop stop-color="#176FEB"/><stop offset="1" stop-color="#FF80FF"/></linearGradient></defs></symbol><symbol fill="none" viewBox="0 0 49 49" id="hero-card-icon-wrapper3" xmlns="http://www.w3.org/2000/svg"><rect x=".325" y=".459" width="48" height="48" rx="8" fill="#E5F0FF"/><path d="M24.325 8.21a16.25 16.25 0 1 0 16.25 16.25 16.268 16.268 0 0 0-16.25-16.25Zm8.18 9.706-4.39 9.71a1.25 1.25 0 0 1-.647.634l-9.28 3.977a1.25 1.25 0 0 1-1.642-1.641l3.977-9.28c.123-.287.349-.517.632-.646l9.693-4.407a1.25 1.25 0 0 1 1.657 1.653Z" fill="url(#da)"/><defs><linearGradient id="da" x1="6.26" y1="6.828" x2="48.608" y2="16.191" gradientUnits="userSpaceOnUse"><stop stop-color="#176FEB"/><stop offset="1" stop-color="#FF80FF"/></linearGradient></defs></symbol></svg>