<?xml version="1.0" encoding="utf-8"?><svg xmlns="http://www.w3.org/2000/svg" xmlns:xlink="http://www.w3.org/1999/xlink"><symbol fill="none" viewBox="0 0 40 40" id="Arrowbuttons" xmlns="http://www.w3.org/2000/svg"><rect x="40" y="40" width="40" height="40" rx="8" transform="rotate(-180 40 40)" fill="#E6EDF7"/><path d="M23 27.5 15.5 20l7.5-7.5" stroke="#DAE4F2" stroke-width="2.5" stroke-linecap="square" stroke-linejoin="bevel"/></symbol><symbol fill="none" viewBox="0 0 40 40" id="ArrowbuttonsActive" xmlns="http://www.w3.org/2000/svg"><rect width="40" height="40" rx="8" fill="#E5F0FF"/><path d="m17 12.5 7.5 7.5-7.5 7.5" stroke="#8FA3BF" stroke-width="2.5" stroke-linecap="square" stroke-linejoin="bevel"/></symbol><symbol fill="none" viewBox="0 0 24 25" id="Icons-2" xmlns="http://www.w3.org/2000/svg"><rect y=".5" width="24" height="24" rx="12" fill="#8FA3BF"/><g clip-path="url(#la)"><path fill-rule="evenodd" clip-rule="evenodd" d="M14.95 5.902a.312.312 0 0 0-.422-.111l-5.06 2.867a.301.301 0 0 0-.148.324l1.703 8.168a.166.166 0 0 1-.035.126l-.207.229c-.43.476-.794.734-1.487.734-.776 0-1.141-.402-1.719-1.112-.69-.848-1.547-1.904-3.633-1.904H3.89a.51.51 0 0 0-.515.506c0 .28.23.506.515.506h.052c1.59 0 2.191.74 2.828 1.522.569.7 1.214 1.493 2.524 1.493 1.131 0 1.754-.517 2.258-1.075l1.86-2.058 4.424-4.896a.299.299 0 0 0 .036-.353l-2.921-4.966Z" fill="#fff"/></g><defs><clipPath id="la"><path fill="#fff" transform="translate(3.375 5.75)" d="M0 0h14.625v13.5H0z"/></clipPath></defs></symbol><symbol fill="none" viewBox="0 0 24 25" id="aerocard-icon" xmlns="http://www.w3.org/2000/svg"><rect y=".5" width="24" height="24" rx="12" fill="#fff"/><g clip-path="url(#aa)"><path fill-rule="evenodd" clip-rule="evenodd" d="M14.95 5.902a.312.312 0 0 0-.422-.111l-5.06 2.867a.301.301 0 0 0-.148.324l1.703 8.168a.166.166 0 0 1-.035.126l-.207.229c-.43.476-.794.734-1.487.734-.776 0-1.141-.402-1.719-1.112-.69-.848-1.547-1.904-3.633-1.904H3.89a.51.51 0 0 0-.515.506c0 .28.23.506.515.506h.052c1.59 0 2.191.74 2.828 1.522.569.7 1.214 1.493 2.524 1.493 1.131 0 1.754-.517 2.258-1.075l1.86-2.058 4.424-4.896a.299.299 0 0 0 .036-.353l-2.921-4.966Z" fill="url(#ab)"/></g><defs><linearGradient id="ab" x1="2.563" y1="5.176" x2="21.367" y2="9.654" gradientUnits="userSpaceOnUse"><stop stop-color="#176FEB"/><stop offset="1" stop-color="#FF80FF"/></linearGradient><clipPath id="aa"><path fill="#fff" transform="translate(3.375 5.75)" d="M0 0h14.625v13.5H0z"/></clipPath></defs></symbol><symbol fill="none" viewBox="0 0 20 11" id="arrow-up" xmlns="http://www.w3.org/2000/svg"><path d="M2.5 9 10 1.5 17.5 9" stroke="#8FA3BF" stroke-width="2.5" stroke-linecap="square" stroke-linejoin="bevel"/></symbol><symbol fill="none" viewBox="0 0 15 18" id="button-icon" xmlns="http://www.w3.org/2000/svg"><path d="M14.75 11.6 8.5 17.85H6.75L.5 11.6l1.75-1.775 4.125 4.1V0h2.5v13.925L13 9.8l1.75 1.8Z" fill="#fff"/></symbol><symbol fill="none" viewBox="0 0 32 32" id="favicon" xmlns="http://www.w3.org/2000/svg"><rect width="32" height="32" rx="16" fill="url(#fa)"/><g clip-path="url(#fb)"><path fill-rule="evenodd" clip-rule="evenodd" d="M19.934 7.202a.416.416 0 0 0-.563-.148l-6.747 3.823a.402.402 0 0 0-.197.432l2.27 10.89a.221.221 0 0 1-.046.168l-.276.306c-.573.635-1.06.979-1.983.979-1.035 0-1.521-.536-2.291-1.483-.92-1.13-2.064-2.538-4.845-2.538h-.07a.68.68 0 0 0-.686.674.68.68 0 0 0 .687.674h.069c2.12 0 2.922.987 3.77 2.03.76.934 1.619 1.991 3.366 1.991 1.509 0 2.339-.689 3.011-1.433l2.48-2.744 5.898-6.528a.399.399 0 0 0 .048-.47l-3.895-6.623Z" fill="#fff"/></g><defs><linearGradient id="fa" x1="-1.788" y1="-1.36" x2="39.909" y2="7.859" gradientUnits="userSpaceOnUse"><stop stop-color="#176FEB"/><stop offset="1" stop-color="#FF80FF"/></linearGradient><clipPath id="fb"><path fill="#fff" transform="translate(4.5 7)" d="M0 0h19.5v18H0z"/></clipPath></defs></symbol><symbol fill="none" viewBox="0 0 16 16" id="filter-dropdown-icon" xmlns="http://www.w3.org/2000/svg"><path d="M7.67 11.77c.037.07.086.129.144.169.057.04.12.061.185.061a.323.323 0 0 0 .186-.061.465.465 0 0 0 .143-.17l3.6-6.932a.684.684 0 0 0 .026-.551.502.502 0 0 0-.147-.21A.329.329 0 0 0 11.6 4H4.4a.33.33 0 0 0-.207.078.503.503 0 0 0-.147.208.686.686 0 0 0 .024.55l3.6 6.934Z" fill="#000"/></symbol><symbol fill="none" viewBox="0 0 33 32" id="github-icon" xmlns="http://www.w3.org/2000/svg"><path d="M16.488 2.384C8.759 2.381 2.5 8.637 2.5 16.36c0 6.107 3.916 11.297 9.369 13.203.734.185.622-.337.622-.693v-2.422c-4.241.497-4.413-2.31-4.697-2.778-.575-.982-1.935-1.232-1.528-1.7.965-.497 1.95.125 3.09 1.81.825 1.22 2.435 1.015 3.25.812.178-.735.56-1.391 1.085-1.9-4.394-.788-6.225-3.47-6.225-6.657 0-1.547.509-2.968 1.509-4.115-.637-1.891.06-3.51.153-3.75 1.816-.163 3.703 1.3 3.85 1.415 1.031-.278 2.21-.425 3.528-.425 1.325 0 2.506.153 3.547.435.353-.27 2.103-1.525 3.79-1.372.091.24.773 1.822.173 3.687 1.012 1.15 1.528 2.585 1.528 4.135 0 3.193-1.844 5.878-6.25 6.653a3.983 3.983 0 0 1 1.19 2.844v3.515c.025.281 0 .56.47.56 5.534-1.866 9.518-7.094 9.518-13.254 0-7.725-6.263-13.978-13.985-13.978Z" fill="#8FA3BF"/></symbol><symbol fill="none" viewBox="0 0 49 48" id="hero-card-icon-wrapper1" xmlns="http://www.w3.org/2000/svg"><rect x=".324" width="48" height="48" rx="8" fill="#E5F0FF"/><path d="m27.846 25.754 8.725-3.173a2.499 2.499 0 0 0 .023-4.69L12.338 8.795a2.5 2.5 0 0 0-3.218 3.219l9.096 24.256a2.478 2.478 0 0 0 2.34 1.622h.013a2.478 2.478 0 0 0 2.337-1.646l3.172-8.724 9.863 9.862a1.25 1.25 0 1 0 1.767-1.768l-9.862-9.862Z" fill="url(#ia)"/><defs><linearGradient id="ia" x1="7.326" y1="7.393" x2="45.447" y2="15.821" gradientUnits="userSpaceOnUse"><stop stop-color="#176FEB"/><stop offset="1" stop-color="#FF80FF"/></linearGradient></defs></symbol><symbol fill="none" viewBox="0 0 49 48" id="hero-card-icon-wrapper2" xmlns="http://www.w3.org/2000/svg"><rect x=".325" y="-.003" width="48" height="48" rx="8" fill="#E5F0FF"/><path d="M36.959 26.497a2.477 2.477 0 0 1-1.636 2.346l-8.15 3.003-3.002 8.15a2.501 2.501 0 0 1-4.692 0l-3.003-8.15-8.15-3.003a2.5 2.5 0 0 1 0-4.692l8.15-3.002 3.003-8.15a2.5 2.5 0 0 1 4.692 0l3.002 8.15 8.15 3.002a2.477 2.477 0 0 1 1.636 2.346Zm-8.884-15h2.5v2.5a1.25 1.25 0 0 0 2.5 0v-2.5h2.5a1.25 1.25 0 0 0 0-2.5h-2.5v-2.5a1.25 1.25 0 0 0-2.5 0v2.5h-2.5a1.25 1.25 0 0 0 0 2.5Zm13.75 5h-1.25v-1.25a1.25 1.25 0 0 0-2.5 0v1.25h-1.25a1.25 1.25 0 0 0 0 2.5h1.25v1.25a1.25 1.25 0 0 0 2.5 0v-1.25h1.25a1.25 1.25 0 0 0 0-2.5Z" fill="url(#ja)"/><defs><linearGradient id="ja" x1="4.658" y1="3.701" x2="52.067" y2="14.183" gradientUnits="userSpaceOnUse"><stop stop-color="#176FEB"/><stop offset="1" stop-color="#FF80FF"/></linearGradient></defs></symbol><symbol fill="none" viewBox="0 0 49 49" id="hero-card-icon-wrapper3" xmlns="http://www.w3.org/2000/svg"><rect x=".325" y=".459" width="48" height="48" rx="8" fill="#E5F0FF"/><path d="M24.325 8.21a16.25 16.25 0 1 0 16.25 16.25 16.268 16.268 0 0 0-16.25-16.25Zm8.18 9.706-4.39 9.71a1.25 1.25 0 0 1-.647.634l-9.28 3.977a1.25 1.25 0 0 1-1.642-1.641l3.977-9.28c.123-.287.349-.517.632-.646l9.693-4.407a1.25 1.25 0 0 1 1.657 1.653Z" fill="url(#ka)"/><defs><linearGradient id="ka" x1="6.26" y1="6.828" x2="48.608" y2="16.191" gradientUnits="userSpaceOnUse"><stop stop-color="#176FEB"/><stop offset="1" stop-color="#FF80FF"/></linearGradient></defs></symbol></svg>